<?xml version="1.0" encoding="UTF-8" standalone="no"?>
<!DOCTYPE svg PUBLIC "-//W3C//DTD SVG 1.1//EN"
 "http://www.w3.org/Graphics/SVG/1.1/DTD/svg11.dtd">
<!-- Generated by graphviz version 12.1.2 (20240928.0832)
 -->
<!-- Title: G Pages: 1 -->
<svg width="402pt" height="289pt"
 viewBox="0.00 0.00 401.90 289.35" xmlns="http://www.w3.org/2000/svg" xmlns:xlink="http://www.w3.org/1999/xlink">
<g id="graph0" class="graph" transform="scale(1 1) rotate(0) translate(4 285.35)">

<polygon fill="white" stroke="none" points="-4,4 -4,-285.35 397.9,-285.35 397.9,4 -4,4"/>
<!-- node_0 -->
<g id="node_0" class="node">

<g id="a_node_0"><a xlink:title=" &#160;&#160;&#160;&#160;&#160;File &quot;&lt;ipython&#45;input&#45;7&#45;343abf533df7&gt;&quot;, line 5, in &lt;module&gt;&#10; &#160;&#160;&#160;&#160;&#160;&#160;&#160;t1 = skrub.var(&quot;Items table&quot;)">
<polygon fill="none" stroke="black" points="100.9,-277.35 4,-277.35 4,-253.08 100.9,-253.08 100.9,-277.35"/>
<polygon fill="none" stroke="black" points="104.9,-281.35 0,-281.35 0,-249.08 104.9,-249.08 104.9,-281.35"/>
<text text-anchor="middle" x="52.45" y="-260.19" font-family="sans-serif" font-size="12.00">Var &#39;Items table&#39;</text>
</a>
</g>
</g>
<!-- node_2 -->
<g id="node_2" class="node">

<g id="a_node_2"><a xlink:title=" &#160;&#160;&#160;&#160;&#160;File &quot;&lt;ipython&#45;input&#45;7&#45;343abf533df7&gt;&quot;, line 9, in &lt;module&gt;&#10; &#160;&#160;&#160;&#160;&#160;&#160;&#160;t3 = t1.merge(t2, on=&quot;ID&quot;)">
<polygon fill="none" stroke="black" points="174.03,-213.08 56.88,-213.08 56.88,-188.81 174.03,-188.81 174.03,-213.08"/>
<text text-anchor="middle" x="115.45" y="-195.92" font-family="sans-serif" font-size="12.00">CallMethod &#39;merge&#39;</text>
</a>
</g>
</g>
<!-- node_0&#45;&gt;node_2 -->
<g id="edge4" class="edge">

<path fill="none" stroke="black" d="M68.02,-248.82C76.42,-240.53 86.86,-230.2 95.81,-221.36"/>
<polygon fill="black" stroke="black" points="98.08,-224.03 102.74,-214.51 93.16,-219.05 98.08,-224.03"/>
</g>
<!-- node_1 -->
<g id="node_1" class="node">

<g id="a_node_1"><a xlink:title=" &#160;&#160;&#160;&#160;&#160;File &quot;&lt;ipython&#45;input&#45;7&#45;343abf533df7&gt;&quot;, line 6, in &lt;module&gt;&#10; &#160;&#160;&#160;&#160;&#160;&#160;&#160;t2 = skrub.var(&quot;Prices table&quot;)">
<polygon fill="none" stroke="black" points="229.52,-277.35 127.37,-277.35 127.37,-253.08 229.52,-253.08 229.52,-277.35"/>
<polygon fill="none" stroke="black" points="233.52,-281.35 123.37,-281.35 123.37,-249.08 233.52,-249.08 233.52,-281.35"/>
<text text-anchor="middle" x="178.45" y="-260.19" font-family="sans-serif" font-size="12.00">Var &#39;Prices table&#39;</text>
</a>
</g>
</g>
<!-- node_1&#45;&gt;node_2 -->
<g id="edge5" class="edge">

<path fill="none" stroke="black" d="M162.88,-248.82C154.48,-240.53 144.04,-230.2 135.09,-221.36"/>
<polygon fill="black" stroke="black" points="137.74,-219.05 128.16,-214.51 132.82,-224.03 137.74,-219.05"/>
</g>
<!-- node_3 -->
<g id="node_3" class="node">

<g id="a_node_3"><a xlink:title=" &#160;&#160;&#160;&#160;&#160;File &quot;&lt;ipython&#45;input&#45;7&#45;343abf533df7&gt;&quot;, line 10, in &lt;module&gt;&#10; &#160;&#160;&#160;&#160;&#160;&#160;&#160;X = t3.drop(columns=[&quot;price_in_euro&quot;]).skb.mark_as_X()">
<polygon fill="#c6d5f0" stroke="black" points="125.28,-84.54 3.62,-84.54 3.62,-60.27 125.28,-60.27 125.28,-84.54"/>
<text text-anchor="middle" x="64.45" y="-67.38" font-family="sans-serif" font-size="12.00">X: CallMethod &#39;drop&#39;</text>
</a>
</g>
</g>
<!-- node_2&#45;&gt;node_3 -->
<g id="edge3" class="edge">

<path fill="none" stroke="black" d="M106.03,-188.63C98.87,-179.49 89.28,-166.02 83.45,-152.81 75.38,-134.52 70.43,-112.28 67.62,-95.99"/>
<polygon fill="black" stroke="black" points="71.12,-95.69 66.1,-86.36 64.2,-96.78 71.12,-95.69"/>
</g>
<!-- node_4 -->
<g id="node_4" class="node">

<g id="a_node_4"><a xlink:title=" &#160;&#160;&#160;&#160;&#160;File &quot;&lt;ipython&#45;input&#45;7&#45;343abf533df7&gt;&quot;, line 11, in &lt;module&gt;&#10; &#160;&#160;&#160;&#160;&#160;&#160;&#160;y = t3[&quot;price_in_euro&quot;].skb.mark_as_y() * coef">
<polygon fill="#fad9c6" stroke="black" points="240.77,-148.81 92.12,-148.81 92.12,-124.54 240.77,-124.54 240.77,-148.81"/>
<text text-anchor="middle" x="166.45" y="-131.65" font-family="sans-serif" font-size="12.00">y: GetItem &#39;price_in_euro&#39;</text>
</a>
</g>
</g>
<!-- node_2&#45;&gt;node_4 -->
<g id="edge8" class="edge">

<path fill="none" stroke="black" d="M124.8,-188.52C131.85,-179.92 141.69,-167.91 150.03,-157.72"/>
<polygon fill="black" stroke="black" points="152.57,-160.15 156.2,-150.19 147.15,-155.71 152.57,-160.15"/>
</g>
<!-- node_7 -->
<g id="node_7" class="node">

<g id="a_node_7"><a xlink:title=" &#160;&#160;&#160;&#160;&#160;File &quot;&lt;ipython&#45;input&#45;7&#45;343abf533df7&gt;&quot;, line 13, in &lt;module&gt;&#10; &#160;&#160;&#160;&#160;&#160;&#160;&#160;pred = X.skb.apply(Ridge(), y=y)">
<polygon fill="none" stroke="black" points="162.65,-24.27 82.25,-24.27 82.25,0 162.65,0 162.65,-24.27"/>
<text text-anchor="middle" x="122.45" y="-7.11" font-family="sans-serif" font-size="12.00">Apply Ridge</text>
</a>
</g>
</g>
<!-- node_3&#45;&gt;node_7 -->
<g id="edge1" class="edge">

<path fill="none" stroke="black" d="M75.91,-59.89C83.61,-52.15 93.97,-41.75 102.95,-32.72"/>
<polygon fill="black" stroke="black" points="105.37,-35.25 109.95,-25.7 100.41,-30.31 105.37,-35.25"/>
</g>
<!-- node_6 -->
<g id="node_6" class="node">

<g id="a_node_6"><a xlink:title=" &#160;&#160;&#160;&#160;&#160;File &quot;&lt;ipython&#45;input&#45;7&#45;343abf533df7&gt;&quot;, line 11, in &lt;module&gt;&#10; &#160;&#160;&#160;&#160;&#160;&#160;&#160;y = t3[&quot;price_in_euro&quot;].skb.mark_as_y() * coef">
<polygon fill="none" stroke="black" points="217.27,-84.54 143.62,-84.54 143.62,-60.27 217.27,-60.27 217.27,-84.54"/>
<text text-anchor="middle" x="180.45" y="-67.38" font-family="sans-serif" font-size="12.00">BinOp: mul</text>
</a>
</g>
</g>
<!-- node_4&#45;&gt;node_6 -->
<g id="edge6" class="edge">

<path fill="none" stroke="black" d="M169.02,-124.25C170.79,-116.35 173.22,-105.58 175.37,-95.98"/>
<polygon fill="black" stroke="black" points="178.79,-96.75 177.57,-86.23 171.96,-95.22 178.79,-96.75"/>
</g>
<!-- node_5 -->
<g id="node_5" class="node">

<g id="a_node_5"><a xlink:title=" &#160;&#160;&#160;&#160;&#160;File &quot;&lt;ipython&#45;input&#45;7&#45;343abf533df7&gt;&quot;, line 7, in &lt;module&gt;&#10; &#160;&#160;&#160;&#160;&#160;&#160;&#160;coef = skrub.var(&quot;euro_dollar_rate&quot;)">
<polygon fill="none" stroke="black" points="389.9,-148.81 263,-148.81 263,-124.54 389.9,-124.54 389.9,-148.81"/>
<polygon fill="none" stroke="black" points="393.9,-152.81 259,-152.81 259,-120.54 393.9,-120.54 393.9,-152.81"/>
<text text-anchor="middle" x="326.45" y="-131.65" font-family="sans-serif" font-size="12.00">Var &#39;euro_dollar_rate&#39;</text>
</a>
</g>
</g>
<!-- node_5&#45;&gt;node_6 -->
<g id="edge7" class="edge">

<path fill="none" stroke="black" d="M289.98,-120.12C267.92,-110.71 239.85,-98.74 217.66,-89.27"/>
<polygon fill="black" stroke="black" points="219.25,-86.15 208.67,-85.44 216.5,-92.59 219.25,-86.15"/>
</g>
<!-- node_6&#45;&gt;node_7 -->
<g id="edge2" class="edge">

<path fill="none" stroke="black" d="M168.99,-59.89C161.29,-52.15 150.93,-41.75 141.95,-32.72"/>
<polygon fill="black" stroke="black" points="144.49,-30.31 134.95,-25.7 139.53,-35.25 144.49,-30.31"/>
</g>
</g>
</svg>
