<?xml version="1.0" encoding="UTF-8" standalone="no"?>
<!DOCTYPE svg PUBLIC "-//W3C//DTD SVG 1.1//EN"
 "http://www.w3.org/Graphics/SVG/1.1/DTD/svg11.dtd">
<!-- Generated by graphviz version 9.0.0 (20231125.0833)
 -->
<!-- Title: G Pages: 1 -->
<svg width="510pt" height="167pt"
 viewBox="0.00 0.00 509.52 166.57" xmlns="http://www.w3.org/2000/svg" xmlns:xlink="http://www.w3.org/1999/xlink">
<g id="graph0" class="graph" transform="scale(1 1) rotate(0) translate(4 162.57)">
<title>G</title>
<polygon fill="white" stroke="none" points="-4,4 -4,-162.57 505.52,-162.57 505.52,4 -4,4"/>
<!-- Recipe -->
<g id="node1" class="node">
<title>Recipe</title>
<ellipse fill="none" stroke="blue" cx="46.32" cy="-82.12" rx="46.32" ry="19.45"/>
<text text-anchor="middle" x="46.32" y="-78.57" font-family="monospace" font-size="14.00" fill="blue">Recipe</text>
</g>
<!-- Recipe&#45;&gt;Recipe -->
<g id="edge4" class="edge">
<title>Recipe&#45;&gt;Recipe</title>
<path fill="none" stroke="blue" d="M22.89,-99.07C17.24,-109.57 25.05,-119.57 46.32,-119.57 59.61,-119.57 67.64,-115.66 70.42,-110.17"/>
<polygon fill="blue" stroke="blue" points="73.94,-110.35 69.84,-100.58 66.95,-110.77 73.94,-110.35"/>
<text text-anchor="middle" x="46.32" y="-125.77" font-family="monospace" font-size="14.00" fill="blue">add(step)</text>
</g>
<!-- Pipeline -->
<g id="node2" class="node">
<title>Pipeline</title>
<ellipse fill="none" stroke="black" cx="385.2" cy="-139.12" rx="57.98" ry="19.45"/>
<text text-anchor="middle" x="385.2" y="-135.57" font-family="monospace" font-size="14.00">Pipeline</text>
</g>
<!-- Recipe&#45;&gt;Pipeline -->
<g id="edge1" class="edge">
<title>Recipe&#45;&gt;Pipeline</title>
<path fill="none" stroke="black" d="M79.37,-96C89.24,-99.8 100.24,-103.57 110.63,-106.12 179.52,-123.07 260.39,-131.45 316.24,-135.51"/>
<polygon fill="black" stroke="black" points="315.69,-138.98 325.91,-136.18 316.18,-132 315.69,-138.98"/>
<text text-anchor="middle" x="180.76" y="-134.32" font-family="monospace" font-size="14.00">get_pipeline()</text>
</g>
<!-- GridSearchCV -->
<g id="node3" class="node">
<title>GridSearchCV</title>
<ellipse fill="none" stroke="black" cx="385.2" cy="-82.12" rx="81.32" ry="19.45"/>
<text text-anchor="middle" x="385.2" y="-78.57" font-family="monospace" font-size="14.00">GridSearchCV</text>
</g>
<!-- Recipe&#45;&gt;GridSearchCV -->
<g id="edge2" class="edge">
<title>Recipe&#45;&gt;GridSearchCV</title>
<path fill="none" stroke="black" d="M93.1,-82.12C144.01,-82.12 227.58,-82.12 292.15,-82.12"/>
<polygon fill="black" stroke="black" points="292.05,-85.62 302.05,-82.12 292.05,-78.62 292.05,-85.62"/>
<text text-anchor="middle" x="180.76" y="-88.32" font-family="monospace" font-size="14.00">get_grid_search()</text>
</g>
<!-- RandomizedSearchCV -->
<g id="node4" class="node">
<title>RandomizedSearchCV</title>
<ellipse fill="none" stroke="black" cx="385.2" cy="-25.12" rx="116.32" ry="19.45"/>
<text text-anchor="middle" x="385.2" y="-21.57" font-family="monospace" font-size="14.00">RandomizedSearchCV</text>
</g>
<!-- Recipe&#45;&gt;RandomizedSearchCV -->
<g id="edge3" class="edge">
<title>Recipe&#45;&gt;RandomizedSearchCV:w</title>
<path fill="none" stroke="black" d="M79.68,-68.32C119.92,-52.38 191.4,-27.97 257.47,-25.35"/>
<polygon fill="black" stroke="black" points="257.44,-28.85 267.37,-25.15 257.3,-21.86 257.44,-28.85"/>
<text text-anchor="middle" x="170.07" y="-6.2" font-family="monospace" font-size="14.00">get_randomized_search()</text>
</g>
</g>
</svg>
