<?xml version="1.0" encoding="UTF-8" standalone="no"?>
<!-- Created with Inkscape (http://www.inkscape.org/) -->

<svg
   width="231.1505mm"
   height="199.59897mm"
   viewBox="0 0 231.1505 199.59897"
   version="1.1"
   id="svg1537"
   inkscape:version="1.1 (c4e8f9e, 2021-05-24)"
   sodipodi:docname="logo_skrub_final.svg"
   xmlns:inkscape="http://www.inkscape.org/namespaces/inkscape"
   xmlns:sodipodi="http://sodipodi.sourceforge.net/DTD/sodipodi-0.dtd"
   xmlns="http://www.w3.org/2000/svg"
   xmlns:svg="http://www.w3.org/2000/svg">
  <sodipodi:namedview
     id="namedview1539"
     pagecolor="#ffffff"
     bordercolor="#666666"
     borderopacity="1.0"
     inkscape:pageshadow="2"
     inkscape:pageopacity="0.0"
     inkscape:pagecheckerboard="0"
     inkscape:document-units="mm"
     showgrid="false"
     inkscape:zoom="0.48517716"
     inkscape:cx="475.0842"
     inkscape:cy="466.83979"
     inkscape:window-width="1312"
     inkscape:window-height="847"
     inkscape:window-x="241"
     inkscape:window-y="222"
     inkscape:window-maximized="0"
     inkscape:current-layer="layer1"
     units="mm"
     fit-margin-top="0"
     fit-margin-left="0"
     fit-margin-right="0"
     fit-margin-bottom="0" />
  <defs
     id="defs1534" />
  <g
     inkscape:label="Layer 1"
     inkscape:groupmode="layer"
     id="layer1"
     transform="translate(68.055262,1.433082)">
    <path
       id="path1340"
       style="fill:#f89939;fill-opacity:1;stroke:none;stroke-width:0.0352777"
       d="m -37.063875,147.43633 c -0.02453,-0.10918 -0.04527,-0.21932 -0.07183,-0.32815 -0.0688,-0.28192 -0.144687,-0.56336 -0.227375,-0.84543 -0.08269,-0.28206 -0.172281,-0.56482 -0.269235,-0.85059 -0.09695,-0.28578 -0.201049,-0.57409 -0.312642,-0.86713 -0.03547,-0.0931 -0.07672,-0.19011 -0.113689,-0.28422 0.157404,1.07933 0.496216,2.16168 0.994773,3.17552 z" />
    <path
       id="path1338"
       style="fill:#f89939;fill-opacity:1;stroke:none;stroke-width:0.0352777"
       d="m 52.906858,128.6783 c -0.01016,-0.0687 -0.01707,-0.13547 -0.02791,-0.20464 -0.04977,-0.31737 -0.106481,-0.63937 -0.170531,-0.96687 -0.06405,-0.32749 -0.135478,-0.66027 -0.21394,-0.99942 -0.07847,-0.33915 -0.163825,-0.68482 -0.256831,-1.03714 -0.09301,-0.35233 -0.193593,-0.71146 -0.301276,-1.07849 -0.10768,-0.36704 -0.222713,-0.74173 -0.345196,-1.125 -0.122486,-0.38327 -0.252222,-0.77512 -0.389642,-1.17615 -0.238812,-0.68464 -0.432387,-1.22573 -0.611333,-1.68311 -0.08947,-0.22868 -0.175379,-0.43668 -0.261482,-0.63097 -0.0861,-0.19428 -0.172051,-0.37501 -0.262517,-0.54983 -0.09046,-0.17483 -0.185277,-0.34336 -0.287837,-0.51367 -0.102558,-0.1703 -0.212993,-0.34223 -0.335378,-0.52296 -0.244772,-0.36146 -0.536975,-0.7588 -0.907439,-1.25161 -0.302025,-0.40038 -0.594852,-0.77485 -0.886251,-1.13068 -0.291399,-0.35582 -0.581303,-0.69269 -0.877467,-1.0175 -0.296164,-0.32482 -0.598868,-0.6378 -0.915188,-0.94516 -0.31632,-0.30737 -0.646523,-0.60915 -0.99839,-0.91261 -0.351866,-0.30347 -0.725294,-0.60879 -1.128096,-0.92191 -0.402801,-0.31312 -0.834668,-0.63414 -1.303798,-0.97048 -0.469127,-0.33634 -0.975674,-0.68781 -1.526521,-1.06092 -0.550847,-0.37311 -1.146252,-0.76771 -1.794206,-1.19114 -1.211548,-0.78744 -2.292958,-1.49666 -3.263881,-2.14406 -0.970926,-0.6474 -1.831287,-1.23313 -2.599844,-1.77508 -0.384275,-0.27098 -0.745378,-0.53077 -1.086236,-0.78187 -0.34086,-0.25109 -0.661546,-0.49361 -0.963766,-0.72915 -0.30222,-0.23554 -0.586364,-0.46454 -0.854728,-0.68885 -0.268365,-0.2243 -0.52087,-0.44406 -0.760161,-0.66146 -0.239292,-0.21739 -0.465061,-0.43217 -0.680062,-0.64698 -0.215,-0.21481 -0.419459,-0.42942 -0.61495,-0.64596 -0.19549,-0.21654 -0.381994,-0.43524 -0.562755,-0.65784 -0.180763,-0.222604 -0.355767,-0.449146 -0.526584,-0.68213 -0.170815,-0.232984 -0.337677,-0.472162 -0.503328,-0.719852 -0.16565,-0.247689 -0.329792,-0.50378 -0.495059,-0.770496 -0.165269,-0.266718 -0.331594,-0.543991 -0.501264,-0.834059 -0.169666,-0.290065 -0.342564,-0.593315 -0.521414,-0.911055 -0.429731,-0.750777 -0.772634,-1.360996 -1.051616,-1.886189 -0.139491,-0.262596 -0.263006,-0.503742 -0.37362,-0.730705 -0.110612,-0.226962 -0.207979,-0.439753 -0.295588,-0.644922 -0.08761,-0.205168 -0.165682,-0.402748 -0.236161,-0.599963 -0.07048,-0.197216 -0.13353,-0.393759 -0.192755,-0.596863 -0.05922,-0.203105 -0.114622,-0.412785 -0.168465,-0.635619 -0.05384,-0.222835 -0.106379,-0.458796 -0.160713,-0.715204 -0.0824,-0.390329 -0.153625,-0.774414 -0.21394,-1.157552 -0.06031,-0.383137 -0.109469,-0.765524 -0.147277,-1.151866 -0.03781,-0.386342 -0.06418,-0.776732 -0.07907,-1.176673 -0.0149,-0.399942 -0.01828,-0.809578 -0.0098,-1.233517 0.0084,-0.423939 0.02877,-0.862515 0.06098,-1.32085 0.03221,-0.458333 0.07642,-0.936064 0.132807,-1.439188 0.05639,-0.503124 0.124685,-1.031256 0.205671,-1.589566 0.08099,-0.558314 0.174602,-1.147056 0.280604,-1.770952 0.145222,-0.866857 0.267999,-1.662686 0.367419,-2.401403 0.04971,-0.369358 0.09356,-0.724794 0.13126,-1.06712 0.0377,-0.342326 0.06925,-0.672008 0.09457,-0.990637 0.02532,-0.318627 0.04428,-0.626227 0.05684,-0.924491 0.01257,-0.298263 0.01865,-0.586928 0.0181,-0.868165 -5.29e-4,-0.281233 -0.0076,-0.55463 -0.0217,-0.822171 -0.01405,-0.267541 -0.0346,-0.529333 -0.06253,-0.786516 -0.02793,-0.257181 -0.06324,-0.510001 -0.105418,-0.760159 -0.04218,-0.250158 -0.09152,-0.497673 -0.148312,-0.74414 -0.05679,-0.246468 -0.12097,-0.491829 -0.192754,-0.737939 -0.07178,-0.246113 -0.151083,-0.492982 -0.238228,-0.742074 -0.08714,-0.249092 -0.181857,-0.500621 -0.284737,-0.756026 -0.102881,-0.255408 -0.21381,-0.514742 -0.332796,-0.779799 -0.118988,-0.265054 -0.246422,-0.535863 -0.381889,-0.813903 -0.135466,-0.27804 -0.27918,-0.562954 -0.431498,-0.857313 -0.175916,-0.339961 -0.282977,-0.531321 -0.425815,-0.802535 -2.917582,2.978076 -9.401289,3.379277 -13.0441647,1.507403 -2.9499771,-1.522788 -5.7253107,-3.501789 -8.46253111,-5.615162 -0.53626809,0.261834 -1.06902249,0.522671 -1.76268329,0.875398 -0.5464333,0.282757 -1.0265648,0.531736 -1.4614101,0.761195 -0.4348427,0.22946 -0.8241797,0.4391 -1.1885586,0.643372 -0.3643762,0.204271 -0.703662,0.403106 -1.0386959,0.610298 -0.3350313,0.20719 -0.6660489,0.422722 -1.0128568,0.660943 -0.2353733,0.161673 -0.4962313,0.353703 -0.7529274,0.540533 4.6109836,1.996826 9.3163627,4.147637 12.680881,8.084777 4.0775202,8.573522 -10.2833671,9.417831 -8.4888889,17.509011 2.5008417,5.36198 14.6178558,11.826854 5.0317347,17.910014 -7.9595424,6.80712 -19.9349599,-1.24536 -28.1869089,4.62143 -10.22082,5.62735 -12.454556,18.16806 -11.333676,28.9481 -0.145899,0.82681 -0.130317,1.69598 -0.0031,2.56832 0.03697,0.0941 0.07822,0.19108 0.113689,0.28422 0.111593,0.29304 0.215688,0.58135 0.312642,0.86713 0.09695,0.28577 0.186547,0.56853 0.269235,0.85059 0.08269,0.28207 0.158578,0.56351 0.227375,0.84543 0.02656,0.10883 0.0473,0.21897 0.07183,0.32815 1.946376,3.95802 6.164943,6.8488 10.130131,4.21938 7.293801,-4.81999 9.489639,-13.35973 11.53573,-21.51962 1.19787,-7.42937 7.9064805,-13.03216 14.95825856,-14.95774 8.64580534,-4.52555 16.22526844,7.28766 10.93576644,14.11128 -3.7205579,5.57354 -7.6220296,10.73855 -11.006561,16.47445 -2.5160525,4.82667 -3.7269076,13.49225 2.8577063,14.85232 10.8876887,3.31799 9.4998617,-10.05676 10.5833337,-16.68632 0.107989,-8.0412 8.349064,-16.13714 16.509584,-12.41785 7.06138,3.02906 -2.401758,16.23938 7.536492,17.02584 5.863119,-1.38842 7.582498,-8.84651 9.502778,-13.95677 -0.03131,-3.80306 3.43109,-6.31377 6.427514,-5.903 z" />
    <path
       id="path1336"
       style="fill:#f89939;fill-opacity:1;stroke:none;stroke-width:0.0352777"
       d="M 92.020749,-1.4238364 C 86.681981,-1.8194202 91.007524,10.592612 89.438479,14.00623 90.313199,20.803698 85.377421,25.602763 83.873961,31.570014 85.13832,38.625743 78.969224,49.723939 72.232294,41.589042 69.691805,36.635761 63.909225,31.240158 58.315314,34.648378 53.905475,41.04354 42.461235,35.35508 44.891843,28.11286 48.320123,21.816232 48.325465,13.889768 44.080525,7.9342485 41.310025,1.3426972 30.404051,1.6496959 26.798892,7.4092146 c -2.960299,7.7551704 2.983319,14.8528564 4.687569,22.2208674 2.179511,5.242888 1.429428,12.569031 -4.586284,14.604793 -8.71405,3.38908 -11.735829,-9.227325 -19.4029489,-10.548194 -5.8354806,0.867029 -6.4433211,9.702554 -3.175,13.758333 3.9009902,7.021579 13.8189999,5.117097 17.8505909,11.641667 0.686998,2.38102 0.09342,4.220421 -1.20768,5.548497 0.142838,0.271214 0.249899,0.462574 0.425815,0.802535 0.152318,0.294359 0.296032,0.579273 0.431498,0.857313 0.135467,0.27804 0.262901,0.548849 0.381889,0.813903 0.118986,0.265057 0.229915,0.524391 0.332796,0.779799 0.10288,0.255405 0.197593,0.506934 0.284736,0.756026 0.08715,0.249092 0.166447,0.495961 0.238229,0.742074 0.07178,0.24611 0.135961,0.491471 0.192754,0.737939 0.05679,0.246467 0.106135,0.493982 0.148312,0.74414 0.04218,0.250158 0.07749,0.502978 0.105418,0.760159 0.02793,0.257183 0.04847,0.518975 0.06253,0.786516 0.01405,0.267541 0.02114,0.540938 0.0217,0.822171 5.29e-4,0.281237 -0.0055,0.569902 -0.0181,0.868165 -0.01257,0.298264 -0.03152,0.605864 -0.05684,0.924491 -0.02532,0.318629 -0.05687,0.648311 -0.09457,0.990637 -0.0377,0.342326 -0.08155,0.697762 -0.13126,1.06712 -0.09942,0.738717 -0.222197,1.534546 -0.367419,2.401403 -0.106003,0.623896 -0.199615,1.212638 -0.280604,1.770952 -0.08099,0.55831 -0.14928,1.086442 -0.205671,1.589566 -0.05639,0.503124 -0.100597,0.980855 -0.132808,1.439188 -0.03221,0.458335 -0.05253,0.896911 -0.06098,1.32085 -0.0085,0.423939 -0.0051,0.833575 0.0098,1.233517 0.0149,0.399941 0.04125,0.790331 0.07906,1.176673 0.03781,0.386342 0.08696,0.768729 0.147278,1.151866 0.06031,0.383138 0.13154,0.767223 0.213939,1.157552 0.05433,0.256408 0.106871,0.492369 0.160714,0.715204 0.05384,0.222834 0.109241,0.432514 0.168465,0.635619 0.05922,0.203104 0.122272,0.399647 0.192754,0.596863 0.07048,0.197215 0.148551,0.394795 0.236162,0.599963 0.08761,0.205169 0.184976,0.41796 0.295587,0.644922 0.110615,0.226963 0.23413,0.468109 0.373621,0.730705 0.278982,0.525193 0.621885,1.135412 1.051616,1.886189 0.17885,0.31774 0.351747,0.62099 0.521414,0.911055 0.169669,0.290068 0.335994,0.567341 0.501264,0.834059 0.165266,0.266716 0.329409,0.522807 0.495059,0.770496 0.16565,0.24769 0.332512,0.486868 0.503327,0.719852 0.170818,0.232984 0.345821,0.459526 0.526585,0.68213 0.18076,0.2226 0.367265,0.4413 0.562755,0.65784 0.19549,0.21654 0.39995,0.43115 0.61495,0.64596 0.215001,0.21481 0.44077,0.42959 0.680061,0.64698 0.239292,0.2174 0.491797,0.43716 0.760161,0.66146 0.268365,0.22431 0.552509,0.45331 0.854729,0.68885 0.30222,0.23554 0.622906,0.47806 0.963766,0.72915 0.340857,0.2511 0.701961,0.51089 1.086236,0.78187 0.768557,0.54195 1.628918,1.12768 2.599844,1.77508 0.970923,0.6474 2.052333,1.35662 3.263881,2.14406 0.647954,0.42343 1.243359,0.81803 1.794206,1.19114 0.550846,0.37311 1.057394,0.72458 1.526521,1.06092 0.46913,0.33634 0.900996,0.65736 1.303798,0.97048 0.402802,0.31312 0.776229,0.61844 1.128096,0.92191 0.351867,0.30346 0.682069,0.60524 0.998389,0.91261 0.31632,0.30736 0.619025,0.62034 0.915189,0.94516 0.296164,0.32481 0.586068,0.66168 0.877467,1.0175 0.291399,0.35583 0.584226,0.7303 0.886251,1.13068 0.370464,0.49281 0.662667,0.89015 0.907438,1.25161 0.122386,0.18073 0.232821,0.35266 0.335378,0.52296 0.102561,0.17031 0.197374,0.33884 0.287838,0.51367 0.09047,0.17482 0.176413,0.35555 0.262517,0.54983 0.0861,0.19429 0.172011,0.40229 0.261482,0.63097 0.178946,0.45738 0.37252,0.99847 0.611333,1.68311 0.13742,0.40103 0.267155,0.79288 0.389642,1.17615 0.122483,0.38327 0.237516,0.75796 0.345196,1.125 0.107683,0.36703 0.208267,0.72616 0.301276,1.07849 0.09301,0.35232 0.178366,0.69799 0.256831,1.03714 0.07846,0.33915 0.149892,0.67193 0.213939,0.99942 0.06405,0.3275 0.120767,0.6495 0.170532,0.96687 0.01085,0.0692 0.01773,0.13591 0.02791,0.20464 1.812933,0.24852 3.455289,1.56561 4.049882,4.3155 1.375222,8.10277 -1.563222,16.49362 -4.621422,23.70656 -1.949169,6.25224 -5.060304,11.29797 -7.443475,17.21549 -2.10584,3.85462 -3.240982,11.29613 1.653646,13.37902 6.00978,2.12072 8.625874,-8.28867 9.331214,-13.08343 0.891899,-14.84014 2.885701,-30.53675 9.65264,-43.51053 5.0873,-8.18719 13.198498,2.98531 10.699088,9.20306 -2.235798,5.73618 -6.452976,10.82431 -5.331457,17.49609 -0.99109,7.16851 10.657377,7.60939 14.176396,3.81579 4.567991,-7.41622 -2.476151,-15.61938 -2.110981,-23.41718 -1.822072,-5.26514 4.810265,-15.81116 8.848556,-7.27449 7.863167,14.9208 9.599822,32.308 12.135682,48.86007 0.65303,7.43158 3.22574,16.33059 11.32438,18.41489 8.19699,2.43815 8.99131,-7.88323 7.02024,-13.15888 -3.74268,-7.92708 -8.71959,-14.81726 -12.48864,-22.5423 -5.22794,-10.05242 -8.77881,-21.53731 -11.747602,-32.91427 -3.887038,-4.85675 1.620031,-11.98182 4.657082,-5.04465 0.41174,7.25326 13.33963,5.66625 11.25357,-1.4118 -3.10388,-6.13082 1.87441,-18.1175 9.4542,-12.48761 4.8424,5.993 8.72371,12.99349 15.16962,17.81545 5.65434,5.10023 14.22662,-6.4015 7.53598,-10.67583 -6.03344,-5.43096 -14.27754,-5.72891 -19.91868,-11.28459 -4.65583,-2.80516 -5.84336,-15.409051 2.01072,-12.50621 7.67821,4.237329 9.98395,14.86034 18.32447,18.2733 8.20306,3.37001 17.09634,-4.14851 16.38918,-12.452467 1.25304,-7.044189 -4.89049,-12.051133 -10.86549,-13.723193 -11.62325,-1.690601 -23.57792,-1.540786 -34.67799,-5.785176 -5.06131,-0.29093 -12.66095,-6.699914 -4.94801,-9.736873 6.35029,-0.975032 21.55433,0.161261 17.08577,-10.339937 -5.45876,-3.550801 -10.50558,2.108816 -15.13654,4.025077 -3.72788,2.203209 -12.21361,3.955367 -12.87777,-2.706812 0.28643,-6.47628 5.18945,-11.769389 9.84385,-15.990239 6.52143,-3.45481 12.53088,-8.824116 14.49937,-16.051215 1.82368,-7.48348 3.34574,-18.13905 -4.69222,-22.5428121 -9.6455,-0.4730088 -9.83208,11.6148751 -10.86549,18.4856941 -0.82523,8.477961 -2.63332,17.746498 -9.91308,23.107118 -11.79976,6.749639 -5.091681,-11.147068 -6.808371,-17.215488 -2.778998,-6.5621 -3.048638,-14.42861 1.234551,-20.17913 2.9504,-3.6221406 5.10913,-10.4035304 -1.5875,-11.9238183 -0.446429,-0.1466797 -0.845558,-0.2299441 -1.201478,-0.2563151 z" />
    <path
       d="m 64.640964,65.59583 c -5.28673,17.08024 -7.45565,22.29919 -10.50569,25.41703 -1.15225,1.22001 -2.16892,2.2367 -2.30448,2.2367 -0.0679,0 -0.20334,-1.01669 -0.27112,-2.30449 -0.0679,-1.28778 -0.67779,-3.93116 -1.49112,-5.89673 -1.83004,-4.88007 -1.76225,-7.72678 0.13564,-9.01458 1.49112,-1.01668 1.42334,-1.08446 -1.89782,-1.08446 -7.25231,0 -8.54011,4.40561 -3.32115,11.38682 4.47339,5.89675 3.86338,8.9468 -1.69445,8.9468 -1.6267,0 -2.37228,-0.47444 -3.2534,-2.03336 -1.42335,-2.50782 -3.72784,-2.71114 -5.28673,-0.3389 -1.22001,1.83003 -0.88114,3.66006 1.15223,5.49008 2.8467,2.57558 10.77681,0.88112 16.47023,-3.45672 l 2.37226,-1.83002 -0.54222,1.96558 c -0.33891,1.01667 -0.81336,2.44004 -1.08448,3.05005 -0.40666,1.08445 -0.0679,1.22002 3.32116,1.22002 h 3.72783 l 0.74556,-2.9145 c 1.76226,-6.98121 2.98228,-9.62457 4.67674,-9.8279 2.03336,-0.3389 2.91449,1.01667 2.37224,3.4567 -0.67776,3.18561 0.33891,7.86233 1.83004,8.60791 3.66004,1.96558 9.28568,-2.23671 14.57244,-10.98016 2.44003,-3.99894 3.72781,-4.67675 5.89673,-3.11783 1.08448,0.81336 1.01669,1.22001 -0.81334,5.62564 -2.30449,5.62563 -3.5245,11.04794 -3.05004,13.01351 0.88112,3.32116 5.21896,2.03336 10.70904,-3.18558 l 3.727836,-3.45672 1.42335,1.42335 c 2.30446,2.30448 4.94785,1.5589 10.64125,-3.11784 1.89782,-1.55888 2.10114,-1.55888 1.76225,-0.40665 -0.47444,1.8978 0.88112,4.13449 2.77893,4.60895 1.89781,0.47444 5.28674,-1.01668 8.47233,-3.59229 l 2.30449,-1.89779 -0.54222,1.69447 c -1.08448,3.45672 -0.88114,3.72782 2.57558,3.66004 1.83002,0 3.5245,-0.40667 3.79562,-0.88111 0.40666,-0.61001 1.01666,-0.54223 2.5078,0.33889 4.47341,2.57558 12.33573,-2.5756 14.77577,-9.62459 2.10113,-6.23564 0.9489,-12.53904 -2.5756,-13.42019 -2.03336,-0.47445 -3.45671,0 -6.30342,2.16892 l -2.23671,1.6267 2.37227,-6.57453 c 1.28779,-3.59228 2.23669,-6.84566 2.03336,-7.18456 -0.47444,-0.74556 -4.40563,-0.81334 -5.49008,-0.0679 -0.40667,0.27112 -2.03336,4.27006 -3.59226,8.9468 -3.05005,9.01456 -4.88007,12.67462 -8.06568,16.13134 -2.37225,2.57559 -4.88007,2.9145 -4.88007,0.74557 0,-0.81335 1.22001,-4.54116 2.71114,-8.20122 1.49114,-3.72784 2.50783,-7.04899 2.30449,-7.38788 -0.40667,-0.74559 -4.33784,-0.81337 -5.42229,-0.0679 -0.40668,0.2711 -0.94891,1.28779 -1.22001,2.37224 -1.49115,6.0323 -7.93012,15.04688 -10.37015,14.57243 -1.76227,-0.33888 -1.42336,-2.8467 1.42335,-9.82791 1.35555,-3.25339 2.44003,-6.30343 2.44003,-6.77788 0,-1.15223 -4.13451,-1.15223 -5.49008,-0.0679 -0.54222,0.47447 -1.42335,2.10114 -1.8978,3.59228 -3.05005,9.15013 -9.692356,19.31694 -12.606856,19.31694 -1.01666,0 -1.15223,-0.40669 -0.81334,-3.05005 0.27112,-1.69447 1.55892,-5.49008 2.9145,-8.40455 1.35556,-2.98227 2.30447,-5.82897 2.16891,-6.30343 -0.20334,-0.54222 -1.49114,-0.88112 -3.66006,-0.88112 h -3.32115 l -0.33891,-3.38894 c -0.2711,-2.91448 -0.54222,-3.38894 -1.89779,-3.59227 -3.72782,-0.54223 -6.30343,3.72783 -4.8123,7.93011 0.61001,1.76224 0.47447,2.37225 -1.28778,4.94786 -2.98228,4.27005 -6.57454,7.45565 -7.99789,7.18453 -0.88112,-0.13565 -1.49113,-1.15223 -1.9656,-3.32115 -0.33889,-1.76224 -1.08445,-3.66006 -1.62667,-4.27007 -0.81336,-1.01669 -0.74557,-1.42335 1.08445,-3.32115 2.71114,-2.77893 3.25337,-4.74451 1.89781,-6.16787 -1.35559,-1.35557 -1.83003,-1.35557 -4.81228,-0.0679 -2.84672,1.15226 -2.84672,1.49115 -0.20335,-5.62563 1.35558,-3.66004 1.42336,-4.33785 0.61001,-4.88007 -1.49114,-0.9489 -5.4223,-0.81333 -5.7612,0.13546 z m 6.43899,13.96243 c 0,0.67776 -0.88113,2.03336 -1.89781,3.05004 -1.89779,1.83003 -4.20228,2.44004 -4.20228,1.15224 0,-1.22003 1.96559,-4.60896 2.84672,-4.94785 1.8978,-0.74556 3.25337,-0.47446 3.25337,0.74557 z m 75.234386,2.23668 c 0,6.98121 -6.98121,14.64021 -9.35347,10.30239 -1.35555,-2.37227 2.50782,-10.98015 5.7612,-12.67463 2.64339,-1.35557 3.59227,-0.67779 3.59227,2.37224 z"
       id="path14949"
       style="fill:#000000;stroke:none;stroke-width:0.0515367"
       inkscape:export-filename="/Users/leo/logo_skrub_palette_revert2.png"
       inkscape:export-xdpi="400.89999"
       inkscape:export-ydpi="400.89999" />
    <path
       d="m -40.818692,30.95974 c -1.052308,1.60014 -1.380417,3.45231 -1.09824,5.84638 0.479023,4.30446 4.138922,7.42479 8.631897,7.31006 1.57214,-0.0218 2.172432,-0.20048 4.071937,-1.1834 2.49798,-1.2926 3.427453,-2.30137 4.387161,-4.90922 1.516716,-4.01766 -1.125982,-9.37972 -5.352719,-10.85423 -2.291051,-0.79375 -4.135045,-0.53231 -7.127417,1.01612 -2.393897,1.23874 -2.679215,1.45236 -3.512619,2.77429 z"
       id="path3578"
       style="fill:#3499cd;fill-opacity:1;stroke:none;stroke-width:0.0292979" />
    <path
       d="m -42.87922,60.95646 c -0.660345,0.57262 -1.422048,1.39561 -1.70464,1.80575 -2.107342,3.00376 -1.053883,8.09959 2.218268,10.66184 2.357631,1.81492 5.203129,1.9589 8.234986,0.42303 2.13369,-1.1041 3.411262,-2.52392 4.039063,-4.49818 0.702228,-2.27668 0.585425,-3.1399 -0.828359,-5.87206 -1.144492,-2.21176 -1.424523,-2.56167 -2.601067,-3.30537 -1.414364,-0.88453 -3.28,-1.23866 -5.228985,-0.98887 -1.96245,0.22378 -2.848059,0.61607 -4.129266,1.77386 z"
       id="path3580"
       style="fill:#3499cd;fill-opacity:1;stroke:none;stroke-width:0.0292979" />
    <path
       d="m -60.531957,91.03842 c -3.779185,2.45039 -5.542063,4.78109 -6.730341,8.85972 -1.738925,5.94699 -0.58469,12.64007 3.136666,18.30166 2.637082,4.01246 6.271869,7.21176 13.385899,11.84352 7.008131,4.5546 9.680899,7.36103 12.034645,12.67469 2.272049,5.09203 2.549847,8.11513 1.602772,16.35738 -0.738329,6.28691 -0.618636,8.30322 0.693791,11.28576 2.395048,5.45722 7.301375,8.6913 13.000384,8.61225 3.995857,-0.0554 6.239991,-0.75484 11.141697,-3.52219 3.952409,-2.24314 8.4287,-5.45011 9.2379,-6.62756 0.809201,-1.17746 7.773638,-5.44103 13.201208,-8.08464 4.50339,-2.19836 5.92378,-2.76842 9.85215,-3.91051 12.09827,-3.52236 15.78882,-4.80529 20.83954,-7.22091 4.84256,-2.3079 4.90716,-2.37432 6.48261,-4.04723 2.74984,-2.97337 4.06946,-5.14068 4.9573,-8.20615 1.3748,-4.80192 1.09593,-8.84709 -1.10276,-15.26361 -0.95525,-2.73853 -1.18414,-3.18088 -2.666,-5.15209 -2.41619,-3.20309 -4.24614,-4.76326 -9.42977,-8.15073 -9.69239,-6.29948 -11.07272,-7.56449 -13.93432,-12.64834 -1.71893,-3.00311 -2.04389,-3.75862 -2.47856,-5.80987 -0.65919,-3.12264 -0.61838,-5.84877 0.22965,-10.83994 1.16177,-6.93486 0.90561,-9.34239 -1.53149,-14.05212 -1.54843,-2.99237 -1.6283,-3.08299 -3.5345,-4.47175 -3.75944,-2.73894 -8.04169,-3.49197 -13.34568,-2.33079 -1.98574,0.43375 -3.13247,0.89519 -6.814839,2.76768 -4.371464,2.26205 -4.514123,2.36886 -10.955261,7.51622 -8.708401,7.01334 -9.954665,7.85615 -15.513248,10.50158 -4.829096,2.33392 -7.51558,3.26223 -20.538939,7.16432 -6.73331,2.03274 -8.740532,2.80749 -11.220504,4.45365 z"
       id="path3582"
       style="fill:#3499cd;fill-opacity:1;stroke:none;stroke-width:0.0292979" />
  </g>
</svg>
