<svg width="1112" height="227" viewBox="0 0 1112 227" fill="none" xmlns="http://www.w3.org/2000/svg">
<g clip-path="url(#clip0_1_3)">
<g opacity="0.6">
<path d="M598.018 173.748C597.997 173.652 597.979 173.555 597.955 173.46C597.895 173.213 597.828 172.966 597.756 172.719C597.683 172.471 597.605 172.223 597.52 171.973C597.435 171.722 597.343 171.469 597.246 171.212C597.214 171.13 597.178 171.045 597.146 170.963C597.284 171.909 597.581 172.859 598.018 173.748Z" fill="#F89939"/>
<path d="M676.923 157.297C676.914 157.237 676.908 157.178 676.898 157.117C676.855 156.839 676.805 156.557 676.749 156.27C676.692 155.982 676.63 155.69 676.561 155.393C676.492 155.096 676.417 154.792 676.336 154.483C676.254 154.174 676.166 153.86 676.072 153.538C675.977 153.216 675.876 152.887 675.769 152.551C675.661 152.215 675.548 151.871 675.427 151.52C675.218 150.919 675.048 150.445 674.891 150.043C674.813 149.843 674.737 149.66 674.662 149.49C674.586 149.32 674.511 149.161 674.431 149.008C674.352 148.855 674.269 148.707 674.179 148.557C674.089 148.408 673.992 148.257 673.885 148.099C673.67 147.782 673.414 147.433 673.089 147.001C672.824 146.65 672.567 146.322 672.312 146.009C672.056 145.697 671.802 145.402 671.542 145.117C671.283 144.832 671.017 144.558 670.74 144.288C670.462 144.019 670.173 143.754 669.864 143.488C669.555 143.222 669.228 142.954 668.875 142.679C668.521 142.405 668.143 142.123 667.731 141.828C667.32 141.533 666.876 141.225 666.392 140.898C665.909 140.571 665.387 140.225 664.819 139.853C663.756 139.163 662.808 138.541 661.957 137.973C661.105 137.405 660.35 136.891 659.676 136.416C659.339 136.178 659.023 135.951 658.724 135.73C658.425 135.51 658.144 135.297 657.879 135.091C657.614 134.884 657.364 134.683 657.129 134.487C656.894 134.29 656.672 134.097 656.462 133.907C656.252 133.716 656.054 133.528 655.866 133.339C655.677 133.151 655.498 132.963 655.327 132.773C655.155 132.583 654.992 132.391 654.833 132.196C654.675 132.001 654.521 131.802 654.371 131.598C654.221 131.393 654.075 131.184 653.93 130.966C653.785 130.749 653.641 130.524 653.496 130.291C653.351 130.057 653.205 129.813 653.056 129.559C652.907 129.305 652.756 129.039 652.599 128.76C652.222 128.102 651.921 127.566 651.677 127.106C651.554 126.876 651.446 126.664 651.349 126.465C651.252 126.266 651.166 126.079 651.09 125.899C651.013 125.72 650.944 125.546 650.883 125.373C650.821 125.2 650.765 125.028 650.713 124.85C650.662 124.672 650.613 124.488 650.566 124.292C650.518 124.097 650.472 123.89 650.425 123.665C650.353 123.323 650.29 122.986 650.237 122.65C650.184 122.314 650.141 121.979 650.108 121.64C650.075 121.301 650.052 120.959 650.039 120.608C650.025 120.257 650.023 119.898 650.03 119.526C650.037 119.154 650.055 118.77 650.083 118.368C650.112 117.966 650.15 117.547 650.2 117.106C650.249 116.664 650.309 116.201 650.38 115.711C650.451 115.222 650.533 114.705 650.626 114.158C650.754 113.398 650.861 112.7 650.949 112.052C650.992 111.728 651.031 111.417 651.064 111.116C651.097 110.816 651.124 110.527 651.147 110.248C651.169 109.968 651.186 109.698 651.197 109.437C651.207 109.175 651.213 108.922 651.212 108.675C651.212 108.429 651.206 108.189 651.193 107.954C651.181 107.72 651.163 107.49 651.138 107.265C651.114 107.039 651.083 106.817 651.046 106.598C651.009 106.379 650.966 106.162 650.916 105.945C650.866 105.729 650.81 105.514 650.747 105.298C650.684 105.082 650.614 104.866 650.538 104.647C650.462 104.429 650.378 104.208 650.288 103.984C650.198 103.76 650.101 103.533 649.996 103.3C649.892 103.068 649.78 102.831 649.661 102.587C649.543 102.343 649.417 102.093 649.283 101.835C649.129 101.537 649.035 101.369 648.91 101.131C646.351 103.743 640.665 104.095 637.47 102.453C634.883 101.117 632.449 99.3819 630.048 97.5285C629.578 97.7581 629.111 97.9869 628.502 98.2962C628.023 98.5442 627.602 98.7625 627.221 98.9638C626.839 99.165 626.498 99.3489 626.178 99.528C625.859 99.7072 625.561 99.8815 625.267 100.063C624.974 100.245 624.683 100.434 624.379 100.643C624.173 100.785 623.944 100.953 623.719 101.117C627.763 102.868 631.889 104.754 634.84 108.207C638.416 115.726 625.821 116.467 627.395 123.563C629.588 128.265 640.215 133.935 631.808 139.27C624.827 145.24 614.325 138.178 607.088 143.323C598.124 148.258 596.165 159.256 597.148 168.71C597.02 169.436 597.034 170.198 597.146 170.963C597.178 171.045 597.214 171.13 597.245 171.212C597.343 171.469 597.434 171.722 597.52 171.973C597.605 172.223 597.683 172.471 597.756 172.719C597.828 172.966 597.895 173.213 597.955 173.46C597.978 173.555 597.997 173.652 598.018 173.748C599.725 177.219 603.425 179.754 606.902 177.448C613.299 173.221 615.225 165.732 617.019 158.575C618.07 152.06 623.953 147.146 630.137 145.457C637.72 141.489 644.367 151.849 639.728 157.833C636.465 162.721 633.044 167.251 630.075 172.281C627.869 176.514 626.807 184.114 632.582 185.307C642.13 188.217 640.913 176.487 641.863 170.673C641.958 163.621 649.185 156.521 656.342 159.782C662.535 162.439 654.236 174.024 662.952 174.714C668.094 173.496 669.602 166.956 671.286 162.474C671.258 159.139 674.295 156.937 676.923 157.297Z" fill="#F89939"/>
<path d="M594.725 71.5975C593.802 73.0009 593.515 74.6252 593.762 76.7248C594.182 80.4999 597.392 83.2364 601.332 83.1358C602.711 83.1167 603.237 82.9599 604.903 82.0979C607.094 80.9643 607.909 80.0796 608.751 77.7925C610.081 74.269 607.763 69.5665 604.057 68.2733C602.047 67.5772 600.43 67.8065 597.806 69.1645C595.706 70.2509 595.456 70.4382 594.725 71.5975Z" fill="#3499CD"/>
<path d="M592.918 97.9047C592.339 98.4069 591.671 99.1287 591.423 99.4884C589.575 102.123 590.499 106.592 593.369 108.839C595.436 110.431 597.932 110.557 600.591 109.21C602.462 108.242 603.582 106.996 604.133 105.265C604.749 103.268 604.646 102.511 603.406 100.115C602.403 98.1754 602.157 97.8685 601.125 97.2163C599.885 96.4406 598.249 96.13 596.539 96.3491C594.818 96.5453 594.042 96.8894 592.918 97.9047Z" fill="#3499CD"/>
<path d="M711.226 43.1971C706.544 42.8501 710.337 53.7355 708.961 56.7293C709.728 62.6907 705.399 66.8995 704.081 72.1328C705.19 78.3207 699.779 88.0538 693.871 80.9195C691.643 76.5754 686.572 71.8435 681.666 74.8325C677.798 80.4411 667.762 75.4523 669.894 69.1008C672.9 63.5787 672.905 56.6271 669.182 51.4041C666.752 45.6233 657.188 45.8926 654.026 50.9437C651.43 57.745 656.642 63.9697 658.137 70.4314C660.048 75.0295 659.391 81.4545 654.115 83.2399C646.473 86.2121 643.822 75.1475 637.098 73.9891C631.981 74.7495 631.448 82.4982 634.314 86.0552C637.735 92.2131 646.433 90.5429 649.969 96.2649C650.571 98.3531 650.051 99.9663 648.91 101.131C649.035 101.369 649.129 101.537 649.283 101.835C649.417 102.093 649.543 102.343 649.662 102.587C649.78 102.831 649.892 103.068 649.997 103.3C650.101 103.533 650.198 103.76 650.288 103.984C650.379 104.208 650.462 104.429 650.538 104.647C650.615 104.866 650.684 105.082 650.747 105.298C650.81 105.514 650.866 105.729 650.916 105.945C650.966 106.162 651.009 106.379 651.046 106.598C651.083 106.817 651.114 107.039 651.139 107.265C651.163 107.49 651.181 107.72 651.193 107.954C651.206 108.189 651.212 108.429 651.212 108.675C651.212 108.922 651.208 109.175 651.197 109.437C651.185 109.698 651.169 109.968 651.147 110.248C651.124 110.527 651.097 110.816 651.064 111.116C651.031 111.417 650.992 111.728 650.949 112.052C650.862 112.7 650.754 113.398 650.626 114.158C650.534 114.705 650.451 115.222 650.38 115.711C650.309 116.201 650.249 116.664 650.2 117.105C650.151 117.547 650.112 117.966 650.084 118.368C650.055 118.77 650.037 119.154 650.03 119.526C650.023 119.898 650.026 120.257 650.039 120.608C650.052 120.959 650.075 121.301 650.108 121.64C650.141 121.979 650.184 122.314 650.237 122.65C650.29 122.986 650.353 123.323 650.425 123.665C650.472 123.89 650.519 124.097 650.566 124.292C650.613 124.488 650.662 124.672 650.714 124.85C650.765 125.028 650.821 125.2 650.883 125.373C650.944 125.546 651.013 125.72 651.09 125.899C651.167 126.079 651.252 126.266 651.349 126.465C651.446 126.664 651.554 126.876 651.677 127.106C651.921 127.566 652.222 128.102 652.599 128.76C652.756 129.039 652.907 129.305 653.056 129.559C653.205 129.813 653.351 130.057 653.496 130.291C653.641 130.524 653.785 130.749 653.93 130.966C654.075 131.183 654.222 131.393 654.371 131.598C654.521 131.802 654.675 132.001 654.833 132.196C654.992 132.391 655.155 132.583 655.327 132.773C655.498 132.963 655.677 133.151 655.866 133.339C656.055 133.528 656.253 133.716 656.462 133.907C656.672 134.097 656.894 134.29 657.129 134.487C657.364 134.683 657.614 134.884 657.879 135.091C658.144 135.297 658.425 135.51 658.724 135.73C659.023 135.951 659.34 136.178 659.677 136.416C660.351 136.891 661.105 137.405 661.957 137.973C662.808 138.541 663.757 139.163 664.819 139.853C665.387 140.224 665.909 140.571 666.393 140.898C666.876 141.225 667.32 141.533 667.731 141.828C668.143 142.123 668.522 142.405 668.875 142.679C669.228 142.954 669.556 143.222 669.864 143.488C670.173 143.754 670.462 144.019 670.74 144.288C671.017 144.558 671.283 144.832 671.542 145.117C671.802 145.402 672.056 145.697 672.312 146.009C672.567 146.322 672.824 146.65 673.089 147.001C673.414 147.433 673.67 147.782 673.885 148.099C673.992 148.257 674.089 148.408 674.179 148.557C674.269 148.707 674.352 148.855 674.431 149.008C674.511 149.161 674.586 149.32 674.662 149.49C674.737 149.66 674.813 149.843 674.891 150.043C675.048 150.445 675.218 150.919 675.427 151.52C675.548 151.871 675.661 152.215 675.769 152.551C675.876 152.887 675.977 153.216 676.072 153.538C676.166 153.86 676.254 154.174 676.336 154.483C676.417 154.792 676.492 155.096 676.561 155.393C676.63 155.69 676.693 155.982 676.749 156.27C676.805 156.557 676.855 156.839 676.898 157.117C676.908 157.178 676.914 157.237 676.923 157.297C678.513 157.515 679.953 158.67 680.475 161.082C681.681 168.188 679.104 175.547 676.422 181.872C674.712 187.356 671.984 191.781 669.894 196.97C668.047 200.351 667.051 206.877 671.344 208.704C676.614 210.564 678.909 201.435 679.527 197.23C680.31 184.215 682.058 170.449 687.993 159.071C692.454 151.891 699.568 161.689 697.376 167.142C695.415 172.173 691.717 176.635 692.7 182.486C691.831 188.773 702.047 189.159 705.133 185.832C709.139 179.328 702.961 172.134 703.282 165.296C701.684 160.678 707.5 151.429 711.042 158.916C717.938 172.001 719.461 187.25 721.685 201.766C722.257 208.284 724.514 216.088 731.616 217.916C738.805 220.054 739.502 211.002 737.773 206.376C734.491 199.424 730.126 193.381 726.82 186.606C722.236 177.79 719.121 167.718 716.518 157.74C713.109 153.481 717.939 147.232 720.602 153.316C720.963 159.677 732.301 158.285 730.471 152.078C727.749 146.701 732.115 136.189 738.763 141.126C743.01 146.382 746.414 152.522 752.067 156.75C757.025 161.223 764.543 151.136 758.676 147.388C753.384 142.625 746.154 142.363 741.207 137.491C737.124 135.031 736.082 123.977 742.97 126.523C749.704 130.239 751.726 139.556 759.041 142.549C766.235 145.504 774.035 138.911 773.414 131.628C774.513 125.45 769.125 121.059 763.885 119.593C753.692 118.11 743.207 118.241 733.473 114.519C729.034 114.264 722.369 108.643 729.133 105.98C734.702 105.125 748.036 106.121 744.117 96.9117C739.33 93.7976 734.904 98.7611 730.843 100.442C727.573 102.374 720.131 103.911 719.549 98.0678C719.8 92.3881 724.1 87.746 728.182 84.0443C733.901 81.0144 739.171 76.3055 740.898 69.9674C742.497 63.4043 743.832 54.0594 736.783 50.1973C728.324 49.7824 728.16 60.3835 727.254 66.4093C726.53 73.8444 724.944 81.973 718.56 86.6743C708.212 92.5937 714.095 76.8982 712.589 71.5762C710.152 65.8212 709.915 58.9223 713.672 53.8791C716.259 50.7025 718.152 44.7552 712.279 43.4219C711.888 43.2932 711.538 43.2202 711.226 43.1971Z" fill="#F89939"/>
<path d="M577.437 124.287C574.122 126.436 572.576 128.48 571.534 132.057C570.009 137.272 571.021 143.142 574.285 148.107C576.598 151.626 579.785 154.432 586.024 158.494C592.171 162.488 594.515 164.95 596.579 169.61C598.571 174.076 598.815 176.727 597.984 183.955C597.337 189.469 597.442 191.237 598.593 193.853C600.693 198.639 604.996 201.475 609.994 201.406C613.499 201.357 615.467 200.744 619.766 198.317C623.232 196.35 627.158 193.537 627.867 192.505C628.577 191.472 634.685 187.733 639.445 185.414C643.394 183.486 644.64 182.986 648.085 181.985C658.695 178.896 661.932 177.77 666.361 175.652C670.608 173.628 670.665 173.57 672.047 172.103C674.458 169.495 675.616 167.594 676.394 164.906C677.6 160.694 677.355 157.147 675.427 151.52C674.589 149.118 674.389 148.73 673.089 147.001C670.97 144.192 669.365 142.824 664.819 139.853C656.319 134.328 655.108 133.219 652.599 128.76C651.091 126.127 650.806 125.464 650.425 123.665C649.847 120.926 649.883 118.536 650.626 114.158C651.645 108.076 651.421 105.965 649.283 101.835C647.925 99.2103 647.855 99.1308 646.183 97.9129C642.886 95.5108 639.131 94.8504 634.479 95.8688C632.738 96.2492 631.732 96.6539 628.503 98.296C624.669 100.28 624.544 100.374 618.895 104.888C611.258 111.038 610.165 111.778 605.29 114.098C601.055 116.145 598.699 116.959 587.277 120.381C581.372 122.164 579.612 122.843 577.437 124.287Z" fill="#3499CD"/>
</g>
<g filter="url(#filter0_f_1_3)">
<path d="M422.819 125.213H344.766V194.69H422.819V125.213Z" fill="white"/>
</g>
<mask id="mask0_1_3" style="mask-type:luminance" maskUnits="userSpaceOnUse" x="319" y="125" width="104" height="70">
<path d="M422.688 125.279H319.248V194.643H422.688V125.279Z" fill="white"/>
</mask>
<g mask="url(#mask0_1_3)">
<path opacity="0.27" d="M414.32 113.74C413.799 114.141 413.273 114.534 412.754 114.94C405.41 121.083 398.475 127.932 392.82 136.14C388.611 142.444 384.812 149.084 381.387 155.973C372.975 166.176 365.479 177.265 358.754 189.007C355.561 194.358 352.362 199.673 349.12 204.973C349.665 205.558 350.41 205.907 351.22 205.907H351.954C355.757 199.568 359.429 193.158 363.187 186.773C367.465 179.205 372.134 171.973 377.12 165.04C376.507 166.504 375.955 167.983 375.387 169.473C371.231 180.972 367.32 192.564 363.887 204.373C363.734 204.889 363.542 205.393 363.387 205.907H367.32C367.706 204.581 368.083 203.241 368.454 201.907C371.713 190.13 375.552 178.58 379.687 167.173C381.411 162.683 383.369 158.289 385.487 154.04C386.153 153.236 386.842 152.466 387.52 151.673C396.661 141.449 406.971 132.859 417.854 125.24C417.962 125.194 418.112 125.12 418.22 125.073L421.02 122.54C420.755 123.255 420.482 123.957 420.22 124.673C413.874 140.183 406.36 154.957 399.287 170.04C394.127 181.708 389.365 193.563 385.62 205.907H389.32C393.007 192.762 397.97 180.201 403.387 167.873C410.459 152.757 418.043 137.98 424.454 122.473C425.537 119.537 426.698 116.626 427.854 113.74H424.387C423.288 116.531 422.2 119.329 421.154 122.14C418.552 123.839 415.956 125.508 413.354 127.207C404.693 133.343 396.423 140.207 388.787 147.907C391.448 143.097 394.268 138.409 397.32 133.907C402.78 126.093 409.396 119.622 416.42 113.74H414.32Z" fill="url(#paint0_linear_1_3)"/>
</g>
<path opacity="0.39" d="M422.966 125.212H344.847V142.232H422.966V125.212Z" fill="#B3CAE8"/>
<path opacity="0.97" d="M344.23 124.673V195.073H345.454H371.054H372.12H396.654H397.72H422.254H423.32V124.673H422.254H344.392H344.23ZM344.387 125.74C320.339 486.009 296.291 846.278 344.387 125.74ZM345.454 125.74H371.054V141.74H345.454V125.74ZM372.12 125.74H396.654V141.74H372.12V125.74ZM397.72 125.74H422.254V141.74H397.72V125.74ZM345.454 142.807H371.054V159.873H345.454V142.807ZM372.12 142.807H396.654V159.873H372.12V142.807ZM397.72 142.807H422.254V159.873H397.72V142.807ZM345.454 160.94H371.054V176.94H345.454V160.94ZM372.12 160.94H396.654V176.94H372.12V160.94ZM397.72 160.94H422.254V176.94H397.72V160.94ZM345.454 178.007H371.054V194.007H345.454V178.007ZM372.12 178.007H396.654V194.007H372.12V178.007ZM397.72 178.007H422.254V194.007H397.72V178.007Z" fill="url(#paint1_linear_1_3)"/>
<g filter="url(#filter1_f_1_3)">
<path d="M504.266 9.44777H426.213V78.9254H504.266V9.44777Z" fill="white"/>
</g>
<mask id="mask1_1_3" style="mask-type:luminance" maskUnits="userSpaceOnUse" x="400" y="9" width="105" height="70">
<path d="M504.135 9.51382H400.695V78.8776H504.135V9.51382Z" fill="white"/>
</mask>
<g mask="url(#mask1_1_3)">
<path opacity="0.27" d="M495.767 -2.02493C495.246 -1.62379 494.72 -1.23123 494.201 -0.824933C486.857 5.3184 479.922 12.1674 474.267 20.3751C470.058 26.6794 466.259 33.3188 462.834 40.2084C454.422 50.4109 446.926 61.5 440.201 73.2417C437.008 78.593 433.809 83.9076 430.567 89.2084C431.112 89.7928 431.857 90.1417 432.667 90.1417H433.401C437.204 83.8033 440.876 77.393 444.634 71.0084C448.912 63.4404 453.581 56.2078 458.567 49.2751C457.954 50.7394 457.402 52.2179 456.834 53.7084C452.678 65.2067 448.767 76.7992 445.334 88.6084C445.181 89.124 444.989 89.628 444.834 90.1417H448.767C449.153 88.8157 449.529 87.4756 449.901 86.1417C453.16 74.3649 456.999 62.8151 461.134 51.4084C462.858 46.9178 464.816 42.524 466.934 38.2751C467.6 37.471 468.289 36.7007 468.967 35.9084C478.108 25.6836 488.418 17.094 499.301 9.47507C499.409 9.42888 499.559 9.35465 499.667 9.3084L502.467 6.77507C502.202 7.48972 501.929 8.19167 501.667 8.9084C495.321 24.4178 487.807 39.1921 480.734 54.2751C475.574 65.9428 470.812 77.7983 467.067 90.1417H470.767C474.454 76.9972 479.417 64.436 484.834 52.1084C491.906 36.9917 499.49 22.2146 505.901 6.7084C506.984 3.77239 508.145 0.860465 509.301 -2.02493H505.834C504.735 0.765948 503.647 3.56377 502.601 6.37507C499.999 8.07404 497.403 9.74276 494.801 11.4417C486.14 17.5777 477.87 24.442 470.234 32.1417C472.895 27.3317 475.715 22.6443 478.767 18.1417C484.227 10.3277 490.843 3.8568 497.867 -2.02493H495.767Z" fill="url(#paint2_linear_1_3)"/>
</g>
<path opacity="0.39" d="M504.413 9.44719H426.294V26.4667H504.413V9.44719Z" fill="#B3CAE8"/>
<path opacity="0.97" d="M425.677 8.90845V79.3085H426.901H452.501H453.567H478.101H479.167H503.701H504.767V8.90845H503.701H425.839H425.677ZM425.834 9.97511C401.786 370.244 377.738 730.513 425.834 9.97511ZM426.901 9.97511H452.501V25.9751H426.901V9.97511ZM453.567 9.97511H478.101V25.9751H453.567V9.97511ZM479.167 9.97511H503.701V25.9751H479.167V9.97511ZM426.901 27.0418H452.501V44.1085H426.901V27.0418ZM453.567 27.0418H478.101V44.1085H453.567V27.0418ZM479.167 27.0418H503.701V44.1085H479.167V27.0418ZM426.901 45.1751H452.501V61.1751H426.901V45.1751ZM453.567 45.1751H478.101V61.1751H453.567V45.1751ZM479.167 45.1751H503.701V61.1751H479.167V45.1751ZM426.901 62.2418H452.501V78.2418H426.901V62.2418ZM453.567 62.2418H478.101V78.2418H453.567V62.2418ZM479.167 62.2418H503.701V78.2418H479.167V62.2418Z" fill="url(#paint3_linear_1_3)"/>
<g filter="url(#filter2_f_1_3)">
<path d="M362.362 23.0193H284.31V92.4969H362.362V23.0193Z" fill="white"/>
</g>
<mask id="mask2_1_3" style="mask-type:luminance" maskUnits="userSpaceOnUse" x="258" y="23" width="105" height="70">
<path d="M362.231 23.0854H258.792V92.4492H362.231V23.0854Z" fill="white"/>
</mask>
<g mask="url(#mask2_1_3)">
<path opacity="0.27" d="M353.864 11.5467C353.343 11.9478 352.816 12.3404 352.297 12.7467C344.953 18.89 338.018 25.739 332.364 33.9467C328.154 40.251 324.355 46.8904 320.93 53.78C312.518 63.9825 305.022 75.0715 298.297 86.8133C295.104 92.1646 291.905 97.4792 288.664 102.78C289.209 103.364 289.953 103.713 290.764 103.713H291.497C295.3 97.3749 298.972 90.9645 302.73 84.58C307.008 77.012 311.677 69.7794 316.664 62.8467C316.05 64.311 315.498 65.7894 314.93 67.28C310.774 78.7783 306.863 90.3707 303.43 102.18C303.278 102.696 303.086 103.2 302.93 103.713H306.864C307.249 102.387 307.626 101.047 307.997 99.7133C311.256 87.9365 315.095 76.3867 319.23 64.98C320.954 60.4894 322.912 56.0956 325.03 51.8467C325.696 51.0426 326.386 50.2723 327.064 49.48C336.204 39.2552 346.514 30.6656 357.397 23.0467C357.506 23.0005 357.655 22.9262 357.764 22.88L360.564 20.3467C360.299 21.0613 360.025 21.7633 359.764 22.48C353.417 37.9894 345.904 52.7637 338.83 67.8467C333.67 79.5144 328.909 91.3699 325.164 103.713H328.864C332.55 90.5687 337.513 78.0076 342.93 65.68C350.002 50.5633 357.587 35.7862 363.997 20.28C365.081 17.344 366.241 14.4321 367.397 11.5467H363.93C362.831 14.3375 361.743 17.1354 360.697 19.9467C358.095 21.6456 355.499 23.3143 352.897 25.0133C344.236 31.1493 335.967 38.0135 328.33 45.7133C330.992 40.9033 333.811 36.2159 336.864 31.7133C342.324 23.8993 348.939 17.4284 355.964 11.5467H353.864Z" fill="url(#paint4_linear_1_3)"/>
</g>
<path opacity="0.39" d="M362.509 23.0187H284.391V40.0383H362.509V23.0187Z" fill="#B3CAE8"/>
<path opacity="0.97" d="M283.773 22.48V92.88H284.997H310.597H311.664H336.197H337.264H361.797H362.864V22.48H361.797H283.935H283.773ZM283.93 23.5466C259.882 383.815 235.834 744.084 283.93 23.5466ZM284.997 23.5466H310.597V39.5466H284.997V23.5466ZM311.664 23.5466H336.197V39.5466H311.664V23.5466ZM337.264 23.5466H361.797V39.5466H337.264V23.5466ZM284.997 40.6133H310.597V57.68H284.997V40.6133ZM311.664 40.6133H336.197V57.68H311.664V40.6133ZM337.264 40.6133H361.797V57.68H337.264V40.6133ZM284.997 58.7467H310.597V74.7467H284.997V58.7467ZM311.664 58.7467H336.197V74.7467H311.664V58.7467ZM337.264 58.7467H361.797V74.7467H337.264V58.7467ZM284.997 75.8133H310.597V91.8133H284.997V75.8133ZM311.664 75.8133H336.197V91.8133H311.664V75.8133ZM337.264 75.8133H361.797V91.8133H337.264V75.8133Z" fill="url(#paint5_linear_1_3)"/>
<g filter="url(#filter3_f_1_3)">
<path d="M465.671 147.364H387.618V216.842H465.671V147.364Z" fill="white"/>
</g>
<mask id="mask3_1_3" style="mask-type:luminance" maskUnits="userSpaceOnUse" x="362" y="147" width="104" height="70">
<path d="M465.54 147.43H362.1V216.794H465.54V147.43Z" fill="white"/>
</mask>
<g mask="url(#mask3_1_3)">
<path opacity="0.27" d="M457.172 135.892C456.651 136.293 456.125 136.685 455.606 137.092C448.262 143.235 441.327 150.084 435.672 158.292C431.463 164.596 427.664 171.235 424.239 178.125C415.827 188.328 408.331 199.417 401.606 211.158C398.413 216.51 395.214 221.824 391.972 227.125C392.517 227.709 393.262 228.058 394.072 228.058H394.806C398.609 221.72 402.281 215.31 406.039 208.925C410.317 201.357 414.986 194.124 419.972 187.192C419.359 188.656 418.807 190.134 418.239 191.625C414.083 203.123 410.172 214.716 406.739 226.525C406.586 227.041 406.394 227.545 406.239 228.058H410.172C410.558 226.732 410.935 225.392 411.306 224.058C414.565 212.282 418.404 200.732 422.539 189.325C424.263 184.834 426.221 180.441 428.339 176.192C429.005 175.388 429.694 174.617 430.372 173.825C439.513 163.6 449.823 155.011 460.706 147.392C460.815 147.346 460.964 147.271 461.072 147.225L463.872 144.692C463.607 145.406 463.334 146.108 463.072 146.825C456.726 162.334 449.212 177.109 442.139 192.192C436.979 203.859 432.217 215.715 428.472 228.058H432.172C435.859 214.914 440.822 202.353 446.239 190.025C453.311 174.908 460.895 160.131 467.306 144.625C468.389 141.689 469.55 138.777 470.706 135.892H467.239C466.14 138.683 465.052 141.48 464.006 144.292C461.404 145.991 458.808 147.659 456.206 149.358C447.545 155.494 439.275 162.359 431.639 170.058C434.3 165.248 437.12 160.561 440.172 156.058C445.632 148.244 452.248 141.773 459.272 135.892H457.172Z" fill="url(#paint6_linear_1_3)"/>
</g>
<path opacity="0.39" d="M465.818 147.364H387.699V164.383H465.818V147.364Z" fill="#B3CAE8"/>
<path opacity="0.97" d="M387.082 146.825V217.225H388.306H413.906H414.972H439.506H440.572H465.106H466.172V146.825H465.106H387.244H387.082ZM387.239 147.892C363.191 508.16 339.143 868.429 387.239 147.892ZM388.306 147.892H413.906V163.892H388.306V147.892ZM414.972 147.892H439.506V163.892H414.972V147.892ZM440.572 147.892H465.106V163.892H440.572V147.892ZM388.306 164.958H413.906V182.025H388.306V164.958ZM414.972 164.958H439.506V182.025H414.972V164.958ZM440.572 164.958H465.106V182.025H440.572V164.958ZM388.306 183.092H413.906V199.092H388.306V183.092ZM414.972 183.092H439.506V199.092H414.972V183.092ZM440.572 183.092H465.106V199.092H440.572V183.092ZM388.306 200.158H413.906V216.158H388.306V200.158ZM414.972 200.158H439.506V216.158H414.972V200.158ZM440.572 200.158H465.106V216.158H440.572V200.158Z" fill="url(#paint7_linear_1_3)"/>
<path d="M137.745 71.1305V85.218C137.745 98.1903 108.308 108.697 72.0032 108.697C35.6985 108.697 6.26144 98.1903 6.26144 85.218V71.1305C6.26144 58.1583 35.6985 47.6514 72.0032 47.6514C108.308 47.6514 137.745 58.1583 137.745 71.1305ZM121.662 110.664C127.766 108.492 133.372 105.704 137.745 102.27V132.176C137.745 145.149 108.308 155.656 72.0032 155.656C35.6985 155.656 6.26144 145.149 6.26144 132.176V102.27C10.6344 105.733 16.2401 108.492 22.3447 110.664C35.5224 115.359 53.0731 118.089 72.0032 118.089C90.9332 118.089 108.484 115.359 121.662 110.664ZM6.26144 149.228C10.6344 152.691 16.2401 155.45 22.3447 157.622C35.5224 162.318 53.0731 165.047 72.0032 165.047C90.9332 165.047 108.484 162.318 121.662 157.622C127.766 155.45 133.372 152.662 137.745 149.228V174.439C137.745 187.411 108.308 197.918 72.0032 197.918C35.6985 197.918 6.26144 187.411 6.26144 174.439V149.228Z" fill="#999999"/>
<path d="M848 132L830.188 121.289L829.818 142.07L848 132ZM493.55 83.5663C497.335 88.7143 504.287 93.1764 513.382 97.111C522.53 101.069 534.082 104.59 547.335 107.73C573.848 114.012 607.381 118.815 642.576 122.48C712.979 129.811 790.247 132.608 831.774 133.511L831.852 129.912C790.365 129.01 713.208 126.215 642.949 118.899C607.813 115.24 574.456 110.456 548.165 104.227C535.017 101.112 523.69 97.6481 514.811 93.8069C505.879 89.9427 499.656 85.793 496.45 81.4337L493.55 83.5663Z" fill="#FF0000"/>
<path d="M279 59.5L259.671 51.8594L262.718 72.4194L279 59.5ZM150.011 115.205C168.375 115.373 187.299 104.788 206.143 93.2219C225.194 81.5279 244.266 68.7621 263.446 63.6133L262.512 60.1364C242.692 65.4572 223.052 78.619 204.26 90.1538C185.26 101.816 167.208 111.762 150.044 111.605L150.011 115.205Z" fill="#FF0000"/>
<path d="M341 178.5L323.389 167.462L322.635 188.233L341 178.5ZM148.812 150.95C167.422 151.12 192.401 157.183 222.426 163.827C252.341 170.447 287.032 177.58 324.719 179.71L324.922 176.116C287.544 174.003 253.092 166.926 223.204 160.312C193.424 153.722 167.939 147.525 148.845 147.35L148.812 150.95Z" fill="#FF0000"/>
<path d="M847.5 156.5L829.634 145.879L829.369 166.662L847.5 156.5ZM472.015 188.725C483.312 185.355 506.731 181.785 536.839 178.321C566.886 174.863 603.436 171.526 640.886 168.592C715.797 162.723 794.223 158.474 831.317 158.094L831.28 154.494C794.061 154.875 715.539 159.132 640.604 165.003C603.131 167.939 566.534 171.28 536.427 174.744C506.381 178.202 482.639 181.799 470.985 185.275L472.015 188.725Z" fill="#FF0000"/>
<path d="M424 71L413.935 61.477L410.72 74.9554L424 71ZM367.974 50.5171C372.8 50.5355 376.337 51.2494 379.333 52.399C382.343 53.5542 384.862 55.1685 387.669 57.0812C393.314 60.9265 399.876 65.7978 413.163 69.6477L413.831 67.3425C400.936 63.606 394.64 58.926 389.02 55.0977C386.196 53.1737 383.482 51.4206 380.192 50.1583C376.888 48.8903 373.058 48.1365 367.984 48.1171L367.974 50.5171Z" fill="#FF6600"/>
<path d="M424.5 51.5L411.744 46.0886L413.436 59.8414L424.5 51.5ZM367.974 86.0181C378.365 86.0576 384.3 79.1109 390.329 71.9402C396.438 64.6739 402.79 56.9645 414.087 53.9788L413.473 51.6584C401.345 54.864 394.549 63.1914 388.492 70.3956C382.354 77.6954 377.101 83.6528 367.984 83.6181L367.974 86.0181Z" fill="#FF6600"/>
<path d="M424 35L411.261 29.5495L412.91 43.3074L424 35ZM367.974 68.5237C378.353 68.5632 384.186 61.8295 390.113 54.8672C396.108 47.824 402.335 40.3497 413.576 37.4475L412.976 35.1237C400.906 38.2398 394.235 46.3217 388.285 53.3115C382.266 60.3823 377.107 66.1585 367.984 66.1238L367.974 68.5237Z" fill="#FF6600"/>
<path d="M14.9014 38.8583H5.92413V9.76742H15.2991C18.1211 9.76742 20.5359 10.3498 22.5434 11.5146C24.551 12.6699 26.0898 14.3318 27.1599 16.5004C28.23 18.6595 28.765 21.2447 28.765 24.2561C28.765 27.2864 28.2253 29.8953 27.1457 32.0828C26.0662 34.2608 24.4942 35.9369 22.4298 37.1112C20.3654 38.276 17.8559 38.8583 14.9014 38.8583ZM9.44685 35.7333H14.6741C17.0794 35.7333 19.0728 35.2693 20.6542 34.3413C22.2357 33.4133 23.4147 32.0922 24.1912 30.3782C24.9677 28.6642 25.3559 26.6235 25.3559 24.2561C25.3559 21.9076 24.9724 19.8858 24.2054 18.1907C23.4383 16.4862 22.2925 15.1794 20.7679 14.2703C19.2433 13.3517 17.3446 12.8924 15.0719 12.8924H9.44685V35.7333ZM40.64 39.3697C39.2575 39.3697 38.0027 39.1093 36.8758 38.5885C35.7489 38.0581 34.8541 37.2958 34.1912 36.3015C33.5283 35.2977 33.1969 34.0856 33.1969 32.6652C33.1969 31.4152 33.4431 30.4019 33.9355 29.6254C34.4279 28.8394 35.0861 28.2239 35.9099 27.7788C36.7338 27.3337 37.6429 27.0023 38.6372 26.7845C39.641 26.5572 40.6495 26.3773 41.6628 26.2447C42.9885 26.0742 44.0633 25.9464 44.8872 25.8612C45.7205 25.7665 46.3266 25.6102 46.7054 25.3924C47.0936 25.1746 47.2878 24.7958 47.2878 24.2561V24.1424C47.2878 22.7409 46.9042 21.6519 46.1372 20.8754C45.3796 20.0989 44.2291 19.7106 42.6855 19.7106C41.0851 19.7106 39.8304 20.061 38.9213 20.7617C38.0122 21.4625 37.373 22.2106 37.0037 23.0061L33.8219 21.8697C34.39 20.5439 35.1476 19.5117 36.0946 18.7731C37.051 18.025 38.0927 17.5042 39.2196 17.2106C40.356 16.9076 41.4734 16.7561 42.5719 16.7561C43.2726 16.7561 44.0775 16.8413 44.9866 17.0117C45.9052 17.1727 46.7906 17.5089 47.6429 18.0203C48.5046 18.5316 49.2196 19.3034 49.7878 20.3356C50.356 21.3678 50.64 22.7504 50.64 24.4833V38.8583H47.2878V35.9038H47.1173C46.89 36.3773 46.5113 36.8839 45.981 37.4237C45.4506 37.9635 44.7452 38.4227 43.8645 38.8015C42.9838 39.1803 41.909 39.3697 40.64 39.3697ZM41.1514 36.3583C42.4772 36.3583 43.5946 36.0979 44.5037 35.5771C45.4222 35.0563 46.1135 34.3839 46.5775 33.56C47.051 32.7362 47.2878 31.8697 47.2878 30.9606V27.8924C47.1457 28.0629 46.8332 28.2191 46.3503 28.3612C45.8768 28.4938 45.3275 28.6121 44.7025 28.7163C44.087 28.811 43.4857 28.8962 42.8986 28.972C42.3209 29.0383 41.8522 29.0951 41.4923 29.1424C40.6211 29.2561 39.8067 29.4407 39.0491 29.6964C38.301 29.9426 37.695 30.3167 37.231 30.8186C36.7764 31.311 36.5491 31.9833 36.5491 32.8356C36.5491 34.0004 36.98 34.8811 37.8417 35.4777C38.713 36.0648 39.8162 36.3583 41.1514 36.3583ZM66.2473 17.0402V19.8811H54.9405V17.0402H66.2473ZM58.2359 11.8129H61.5882V32.6083C61.5882 33.5553 61.7255 34.2655 62.0001 34.739C62.2842 35.203 62.6441 35.5155 63.0797 35.6765C63.5248 35.828 63.9935 35.9038 64.4859 35.9038C64.8552 35.9038 65.1583 35.8849 65.395 35.847C65.6318 35.7996 65.8212 35.7617 65.9632 35.7333L66.645 38.7447C66.4177 38.8299 66.1005 38.9152 65.6933 39.0004C65.2861 39.0951 64.77 39.1424 64.145 39.1424C63.198 39.1424 62.27 38.9388 61.3609 38.5316C60.4613 38.1244 59.7132 37.5042 59.1166 36.6708C58.5295 35.8375 58.2359 34.7864 58.2359 33.5174V11.8129ZM77.7104 39.3697C76.3278 39.3697 75.0731 39.1093 73.9462 38.5885C72.8193 38.0581 71.9244 37.2958 71.2615 36.3015C70.5986 35.2977 70.2672 34.0856 70.2672 32.6652C70.2672 31.4152 70.5134 30.4019 71.0058 29.6254C71.4982 28.8394 72.1564 28.2239 72.9802 27.7788C73.8041 27.3337 74.7132 27.0023 75.7075 26.7845C76.7113 26.5572 77.7198 26.3773 78.7331 26.2447C80.0588 26.0742 81.1337 25.9464 81.9575 25.8612C82.7909 25.7665 83.3969 25.6102 83.7757 25.3924C84.164 25.1746 84.3581 24.7958 84.3581 24.2561V24.1424C84.3581 22.7409 83.9746 21.6519 83.2075 20.8754C82.4499 20.0989 81.2994 19.7106 79.7558 19.7106C78.1554 19.7106 76.9007 20.061 75.9916 20.7617C75.0825 21.4625 74.4433 22.2106 74.074 23.0061L70.8922 21.8697C71.4604 20.5439 72.2179 19.5117 73.1649 18.7731C74.1213 18.025 75.163 17.5042 76.2899 17.2106C77.4263 16.9076 78.5437 16.7561 79.6422 16.7561C80.3429 16.7561 81.1479 16.8413 82.057 17.0117C82.9755 17.1727 83.8609 17.5089 84.7132 18.0203C85.5749 18.5316 86.2899 19.3034 86.8581 20.3356C87.4263 21.3678 87.7104 22.7504 87.7104 24.4833V38.8583H84.3581V35.9038H84.1876C83.9604 36.3773 83.5816 36.8839 83.0513 37.4237C82.521 37.9635 81.8155 38.4227 80.9348 38.8015C80.0541 39.1803 78.9793 39.3697 77.7104 39.3697ZM78.2217 36.3583C79.5475 36.3583 80.6649 36.0979 81.574 35.5771C82.4926 35.0563 83.1838 34.3839 83.6479 33.56C84.1213 32.7362 84.3581 31.8697 84.3581 30.9606V27.8924C84.216 28.0629 83.9035 28.2191 83.4206 28.3612C82.9471 28.4938 82.3979 28.6121 81.7729 28.7163C81.1573 28.811 80.556 28.8962 79.9689 28.972C79.3912 29.0383 78.9225 29.0951 78.5626 29.1424C77.6914 29.2561 76.877 29.4407 76.1195 29.6964C75.3713 29.9426 74.7653 30.3167 74.3013 30.8186C73.8467 31.311 73.6195 31.9833 73.6195 32.8356C73.6195 34.0004 74.0503 34.8811 74.9121 35.4777C75.7833 36.0648 76.8865 36.3583 78.2217 36.3583ZM94.2835 38.8583V9.76742H97.6358V20.5061H97.9199C98.1661 20.1273 98.507 19.6443 98.9426 19.0572C99.3877 18.4606 100.022 17.9303 100.846 17.4663C101.679 16.9928 102.806 16.7561 104.227 16.7561C106.064 16.7561 107.683 17.2153 109.085 18.1339C110.486 19.0525 111.58 20.3545 112.366 22.0402C113.152 23.7258 113.545 25.7144 113.545 28.0061C113.545 30.3167 113.152 32.3195 112.366 34.0146C111.58 35.7002 110.491 37.007 109.099 37.935C107.707 38.8536 106.102 39.3129 104.284 39.3129C102.882 39.3129 101.76 39.0809 100.917 38.6169C100.074 38.1434 99.4256 37.6083 98.971 37.0117C98.5165 36.4057 98.1661 35.9038 97.9199 35.5061H97.5222V38.8583H94.2835ZM97.579 27.9492C97.579 29.597 97.8204 31.0506 98.3034 32.31C98.7864 33.56 99.4919 34.5402 100.42 35.2504C101.348 35.9511 102.484 36.3015 103.829 36.3015C105.23 36.3015 106.4 35.9322 107.337 35.1936C108.284 34.4455 108.995 33.4417 109.468 32.1822C109.951 30.9133 110.193 29.5023 110.193 27.9492C110.193 26.4152 109.956 25.0326 109.482 23.8015C109.018 22.561 108.313 21.5809 107.366 20.8612C106.428 20.132 105.249 19.7674 103.829 19.7674C102.465 19.7674 101.32 20.1131 100.391 20.8044C99.4634 21.4862 98.7627 22.4426 98.2892 23.6737C97.8157 24.8953 97.579 26.3205 97.579 27.9492ZM125.093 39.3697C123.711 39.3697 122.456 39.1093 121.329 38.5885C120.202 38.0581 119.307 37.2958 118.644 36.3015C117.981 35.2977 117.65 34.0856 117.65 32.6652C117.65 31.4152 117.896 30.4019 118.389 29.6254C118.881 28.8394 119.539 28.2239 120.363 27.7788C121.187 27.3337 122.096 27.0023 123.09 26.7845C124.094 26.5572 125.103 26.3773 126.116 26.2447C127.442 26.0742 128.516 25.9464 129.34 25.8612C130.174 25.7665 130.78 25.6102 131.159 25.3924C131.547 25.1746 131.741 24.7958 131.741 24.2561V24.1424C131.741 22.7409 131.357 21.6519 130.59 20.8754C129.833 20.0989 128.682 19.7106 127.139 19.7106C125.538 19.7106 124.284 20.061 123.374 20.7617C122.465 21.4625 121.826 22.2106 121.457 23.0061L118.275 21.8697C118.843 20.5439 119.601 19.5117 120.548 18.7731C121.504 18.025 122.546 17.5042 123.673 17.2106C124.809 16.9076 125.927 16.7561 127.025 16.7561C127.726 16.7561 128.531 16.8413 129.44 17.0117C130.358 17.1727 131.244 17.5089 132.096 18.0203C132.958 18.5316 133.673 19.3034 134.241 20.3356C134.809 21.3678 135.093 22.7504 135.093 24.4833V38.8583H131.741V35.9038H131.57C131.343 36.3773 130.964 36.8839 130.434 37.4237C129.904 37.9635 129.198 38.4227 128.318 38.8015C127.437 39.1803 126.362 39.3697 125.093 39.3697ZM125.605 36.3583C126.93 36.3583 128.048 36.0979 128.957 35.5771C129.875 35.0563 130.567 34.3839 131.031 33.56C131.504 32.7362 131.741 31.8697 131.741 30.9606V27.8924C131.599 28.0629 131.286 28.2191 130.803 28.3612C130.33 28.4938 129.781 28.6121 129.156 28.7163C128.54 28.811 127.939 28.8962 127.352 28.972C126.774 29.0383 126.305 29.0951 125.945 29.1424C125.074 29.2561 124.26 29.4407 123.502 29.6964C122.754 29.9426 122.148 30.3167 121.684 30.8186C121.23 31.311 121.002 31.9833 121.002 32.8356C121.002 34.0004 121.433 34.8811 122.295 35.4777C123.166 36.0648 124.269 36.3583 125.605 36.3583ZM156.666 21.9265L153.655 22.7788C153.466 22.2769 153.186 21.7892 152.817 21.3157C152.457 20.8328 151.965 20.435 151.34 20.1225C150.715 19.81 149.914 19.6538 148.939 19.6538C147.604 19.6538 146.491 19.9616 145.601 20.5771C144.72 21.1831 144.28 21.9549 144.28 22.8924C144.28 23.7258 144.583 24.3839 145.189 24.8669C145.795 25.3498 146.742 25.7523 148.03 26.0742L151.269 26.8697C153.219 27.3432 154.673 28.0676 155.629 29.043C156.586 30.0089 157.064 31.2542 157.064 32.7788C157.064 34.0288 156.704 35.1462 155.985 36.1311C155.274 37.1159 154.28 37.8924 153.002 38.4606C151.723 39.0288 150.236 39.3129 148.541 39.3129C146.316 39.3129 144.474 38.8299 143.016 37.864C141.557 36.8981 140.634 35.4871 140.246 33.6311L143.428 32.8356C143.731 34.0099 144.304 34.8905 145.146 35.4777C145.999 36.0648 147.111 36.3583 148.485 36.3583C150.047 36.3583 151.288 36.0269 152.206 35.364C153.134 34.6917 153.598 33.8867 153.598 32.9492C153.598 32.1917 153.333 31.5572 152.803 31.0458C152.272 30.525 151.458 30.1367 150.36 29.8811L146.723 29.0288C144.725 28.5553 143.257 27.8214 142.32 26.8271C141.392 25.8233 140.928 24.5686 140.928 23.0629C140.928 21.8318 141.273 20.7428 141.965 19.7958C142.665 18.8489 143.617 18.1055 144.82 17.5657C146.032 17.0259 147.405 16.7561 148.939 16.7561C151.098 16.7561 152.793 17.2295 154.024 18.1765C155.265 19.1235 156.146 20.3735 156.666 21.9265ZM171.258 39.3129C169.156 39.3129 167.342 38.8489 165.818 37.9208C164.302 36.9833 163.133 35.6765 162.309 34.0004C161.495 32.3148 161.088 30.3545 161.088 28.1197C161.088 25.8848 161.495 23.9152 162.309 22.2106C163.133 20.4966 164.279 19.1614 165.747 18.2049C167.224 17.239 168.947 16.7561 170.917 16.7561C172.053 16.7561 173.176 16.9455 174.284 17.3242C175.391 17.703 176.4 18.3186 177.309 19.1708C178.218 20.0136 178.943 21.1311 179.482 22.5231C180.022 23.9152 180.292 25.6292 180.292 27.6652V29.0856H163.474V26.1879H176.883C176.883 24.9568 176.637 23.8583 176.144 22.8924C175.661 21.9265 174.97 21.1642 174.07 20.6055C173.18 20.0468 172.129 19.7674 170.917 19.7674C169.582 19.7674 168.427 20.0989 167.451 20.7617C166.485 21.4152 165.742 22.2674 165.221 23.3186C164.7 24.3697 164.44 25.4966 164.44 26.6992V28.6311C164.44 30.2788 164.724 31.6756 165.292 32.8214C165.87 33.9578 166.67 34.8242 167.693 35.4208C168.715 36.008 169.904 36.3015 171.258 36.3015C172.139 36.3015 172.934 36.1784 173.644 35.9322C174.364 35.6765 174.984 35.2977 175.505 34.7958C176.026 34.2845 176.428 33.65 176.713 32.8924L179.951 33.8015C179.61 34.9 179.037 35.8659 178.232 36.6992C177.427 37.5231 176.433 38.167 175.249 38.6311C174.066 39.0856 172.735 39.3129 171.258 39.3129Z" fill="#808080"/>
<g filter="url(#filter4_f_1_3)">
<path d="M986.039 106.367H856.558V176.035H986.039V106.367Z" fill="white"/>
</g>
<mask id="mask4_1_3" style="mask-type:luminance" maskUnits="userSpaceOnUse" x="882" y="106" width="104" height="70">
<path d="M985.908 106.624H882.469V175.988H985.908V106.624Z" fill="white"/>
</mask>
<g mask="url(#mask4_1_3)">
<path opacity="0.27" d="M977.541 95.0851C977.02 95.4862 976.494 95.8788 975.974 96.2851C968.63 102.428 961.696 109.277 956.041 117.485C951.831 123.789 948.033 130.429 944.608 137.318C936.196 147.521 928.7 158.61 921.974 170.352C918.782 175.703 915.583 181.018 912.341 186.318C912.886 186.903 913.631 187.252 914.441 187.252H915.174C918.977 180.913 922.65 174.503 926.408 168.118C930.686 160.55 935.354 153.318 940.341 146.385C939.728 147.849 939.176 149.328 938.608 150.818C934.452 162.317 930.541 173.909 927.108 185.718C926.955 186.234 926.763 186.738 926.608 187.252H930.541C930.927 185.926 931.303 184.586 931.674 183.252C934.933 171.475 938.772 159.925 942.908 148.518C944.632 144.028 946.59 139.634 948.708 135.385C949.373 134.581 950.063 133.811 950.741 133.018C959.881 122.794 970.192 114.204 981.074 106.585C981.183 106.539 981.332 106.465 981.441 106.418L984.241 103.885C983.976 104.6 983.703 105.302 983.441 106.018C977.095 121.528 969.581 136.302 962.508 151.385C957.347 163.053 952.586 174.908 948.841 187.252H952.541C956.227 174.107 961.191 161.546 966.608 149.218C973.68 134.102 981.264 119.325 987.674 103.818C988.758 100.882 989.918 97.9705 991.074 95.0851H987.608C986.508 97.876 985.421 100.674 984.374 103.485C981.772 105.184 979.176 106.853 976.574 108.552C967.914 114.688 959.644 121.552 952.008 129.252C954.669 124.442 957.488 119.754 960.541 115.252C966.001 107.438 972.617 100.967 979.641 95.0851H977.541Z" fill="url(#paint8_linear_1_3)"/>
</g>
<path opacity="0.39" d="M986.186 106.557H857.022V123.577H986.186V106.557Z" fill="#B3CAE8"/>
<path opacity="0.97" d="M883.951 159.352H908.484V175.352H883.951V159.352ZM857.284 159.352H882.884V175.352H857.284V159.352ZM883.951 142.285H908.484V158.285H883.951V142.285ZM857.284 142.285H882.884V158.285H857.284V142.285ZM883.951 124.152H908.484V141.218H883.951V124.152ZM857.284 124.152H882.884V141.218H857.284V124.152ZM883.951 107.085H908.484V123.085H883.951V107.085ZM857.284 107.085H882.884V123.085H857.284V107.085ZM960.941 159.352H985.475V175.352H960.941V159.352ZM935.341 159.352H959.875V175.352H935.341V159.352ZM909.685 159.352H934.275V175.352H909.685V159.352ZM960.941 142.285H985.475V158.285H960.941V142.285ZM935.341 142.285H959.875V158.285H935.341V142.285ZM909.685 142.285H934.275V158.285H909.685V142.285ZM960.941 124.152H985.475V141.218H960.941V124.152ZM935.341 124.152H959.875V141.218H935.341V124.152ZM909.685 124.152H934.275V141.218H909.685V124.152ZM960.941 107.085H985.475V123.085H960.941V107.085ZM935.341 107.085H959.875V123.085H935.341V107.085ZM909.685 107.085H934.275V123.085H909.685V107.085ZM856.049 106.018V176.418H909.685H934.275H935.341H959.875H960.941H985.475H986.541V106.018H985.475H856.21H856.049Z" fill="url(#paint9_linear_1_3)"/>
<path d="M1081.24 24.2637L1074.37 17.8974C1072.15 15.8382 1068.68 15.9707 1066.62 18.1887L1061.24 24.1361C1061.79 24.4812 1062.32 24.8801 1062.81 25.3327L1075.44 37.0326C1075.72 37.3014 1076 37.5714 1076.23 37.869L1081.54 32.0027C1083.59 29.7873 1083.47 26.3116 1081.24 24.2637Z" fill="#737373"/>
<mask id="mask5_1_3" style="mask-type:luminance" maskUnits="userSpaceOnUse" x="946" y="194" width="138" height="27">
<path d="M1083.98 194.937H946.731V220.309H1083.98V194.937Z" fill="white"/>
</mask>
<g mask="url(#mask5_1_3)">
<path d="M946.705 208.025C946.705 214.791 952.197 220.276 958.971 220.276H1071.41C1078.18 220.276 1083.67 214.791 1083.67 208.025V207.305C1083.67 200.538 1078.18 195.053 1071.41 195.053H958.971C952.197 195.053 946.705 200.538 946.705 207.305V208.025Z" fill="#737373"/>
</g>
<path d="M996.134 81.9991L997.489 80.5401L1015.99 98.0712C1016.77 98.8039 1017.76 99.1689 1018.74 99.1689C1019.8 99.1689 1020.86 98.7514 1021.65 97.9237C1023.17 96.3221 1023.1 93.794 1021.5 92.2762L1002.93 74.6814L1044.16 30.2624C1047.51 26.6741 1052.84 26.0553 1056.86 28.5295C1057.41 28.8746 1057.94 29.2734 1058.43 29.7273L1071.06 41.4271C1071.34 41.6947 1071.62 41.9648 1071.85 42.2636C1075.15 46.0981 1075.11 51.8743 1071.59 55.6713L1023.55 107.412C1019.76 111.493 1013.38 111.733 1009.29 107.946L996.668 96.2458C992.573 92.4601 992.333 86.0825 996.134 81.9991Z" fill="#737373"/>
<path d="M1006.48 175.171C1007.8 169.777 1013.26 166.476 1018.66 167.805C1044.59 174.172 1070.88 158.283 1077.25 132.383C1080.34 119.836 1078.35 106.838 1071.65 95.7857C1064.96 84.7322 1054.35 76.9456 1041.79 73.8612C1036.39 72.5347 1033.09 67.0873 1034.41 61.6925C1035.74 56.2989 1041.19 52.9982 1046.6 54.3273C1083.31 63.3441 1105.84 100.514 1096.81 137.187C1089.13 168.387 1061.04 189.329 1030.22 189.329C1024.82 189.329 1019.33 188.685 1013.85 187.338C1008.45 186.013 1005.15 180.564 1006.48 175.171ZM1080.63 97.0598C1087.05 109.012 1088.52 121.607 1085.02 134.492C1084.44 136.623 1085.7 138.817 1087.83 139.395C1088.19 139.49 1088.54 139.536 1088.89 139.536C1090.65 139.536 1092.26 138.364 1092.74 136.585C1096.74 121.875 1094.99 106.902 1087.68 93.2852C1086.64 91.3411 1084.21 90.6109 1082.27 91.6524C1080.32 92.6939 1079.59 95.1156 1080.63 97.0598Z" fill="#737373"/>
<path d="M841.547 89.2155H837.854L848.535 60.1246H852.172L862.854 89.2155H859.16L850.467 64.7269H850.24L841.547 89.2155ZM842.91 77.8519H857.797V80.9769H842.91V77.8519ZM870.283 76.0905V89.2155H866.93V67.3973H870.169V70.8064H870.453C870.964 69.6985 871.741 68.8083 872.783 68.136C873.824 67.4541 875.169 67.1132 876.817 67.1132C878.294 67.1132 879.587 67.4163 880.694 68.0223C881.802 68.6189 882.664 69.528 883.28 70.7496C883.895 71.9617 884.203 73.4958 884.203 75.3519V89.2155H880.851V75.5791C880.851 73.8651 880.406 72.5299 879.515 71.5735C878.625 70.6076 877.404 70.1246 875.851 70.1246C874.781 70.1246 873.824 70.3566 872.981 70.8206C872.148 71.2846 871.49 71.9617 871.007 72.8519C870.524 73.742 870.283 74.8216 870.283 76.0905ZM896.749 89.7269C895.367 89.7269 894.112 89.4665 892.985 88.9456C891.858 88.4153 890.963 87.653 890.3 86.6587C889.637 85.6549 889.306 84.4428 889.306 83.0223C889.306 81.7723 889.552 80.7591 890.045 79.9826C890.537 79.1966 891.195 78.581 892.019 78.136C892.843 77.6909 893.752 77.3595 894.746 77.1416C895.75 76.9144 896.759 76.7345 897.772 76.6019C899.098 76.4314 900.172 76.3036 900.996 76.2184C901.83 76.1237 902.436 75.9674 902.814 75.7496C903.203 75.5318 903.397 75.153 903.397 74.6132V74.4996C903.397 73.0981 903.013 72.0091 902.246 71.2326C901.489 70.456 900.338 70.0678 898.795 70.0678C897.194 70.0678 895.939 70.4182 895.03 71.1189C894.121 71.8197 893.482 72.5678 893.113 73.3632L889.931 72.2269C890.499 70.9011 891.257 69.8689 892.204 69.1303C893.16 68.3822 894.202 67.8613 895.329 67.5678C896.465 67.2648 897.582 67.1132 898.681 67.1132C899.382 67.1132 900.187 67.1985 901.096 67.3689C902.014 67.5299 902.9 67.8661 903.752 68.3774C904.614 68.8888 905.329 69.6606 905.897 70.6928C906.465 71.725 906.749 73.1076 906.749 74.8405V89.2155H903.397V86.261H903.226C902.999 86.7345 902.62 87.2411 902.09 87.7809C901.56 88.3206 900.854 88.7799 899.974 89.1587C899.093 89.5375 898.018 89.7269 896.749 89.7269ZM897.261 86.7155C898.586 86.7155 899.704 86.4551 900.613 85.9343C901.531 85.4134 902.223 84.7411 902.687 83.9172C903.16 83.0934 903.397 82.2269 903.397 81.3178V78.2496C903.255 78.4201 902.942 78.5763 902.459 78.7184C901.986 78.8509 901.437 78.9693 900.812 79.0735C900.196 79.1682 899.595 79.2534 899.008 79.3291C898.43 79.3954 897.961 79.4523 897.601 79.4996C896.73 79.6132 895.916 79.7979 895.158 80.0536C894.41 80.2998 893.804 80.6738 893.34 81.1757C892.886 81.6682 892.658 82.3405 892.658 83.1928C892.658 84.3576 893.089 85.2382 893.951 85.8348C894.822 86.422 895.925 86.7155 897.261 86.7155ZM916.22 60.1246V89.2155H912.868V60.1246H916.22ZM924.519 97.3973C923.951 97.3973 923.444 97.35 922.999 97.2553C922.554 97.1701 922.246 97.0848 922.076 96.9996L922.928 94.0451C923.743 94.2534 924.462 94.3292 925.087 94.2723C925.712 94.2155 926.266 93.9362 926.749 93.4343C927.242 92.9418 927.691 92.1417 928.099 91.0337L928.724 89.3292L920.655 67.3973H924.292L930.314 84.7837H930.542L936.564 67.3973H940.201L930.939 92.3973C930.523 93.5242 930.007 94.457 929.391 95.1956C928.776 95.9437 928.061 96.4977 927.246 96.8576C926.441 97.2174 925.532 97.3973 924.519 97.3973ZM960.08 72.2837L957.069 73.136C956.879 72.6341 956.6 72.1464 956.231 71.6729C955.871 71.1899 955.378 70.7922 954.753 70.4797C954.128 70.1672 953.328 70.011 952.353 70.011C951.018 70.011 949.905 70.3187 949.015 70.9343C948.134 71.5403 947.694 72.3121 947.694 73.2496C947.694 74.0829 947.997 74.7411 948.603 75.224C949.209 75.707 950.156 76.1095 951.444 76.4314L954.682 77.2269C956.633 77.7004 958.087 78.4248 959.043 79.4002C960 80.3661 960.478 81.6113 960.478 83.136C960.478 84.386 960.118 85.5034 959.398 86.4882C958.688 87.4731 957.694 88.2496 956.415 88.8178C955.137 89.386 953.65 89.6701 951.955 89.6701C949.73 89.6701 947.888 89.1871 946.43 88.2212C944.971 87.2553 944.048 85.8443 943.66 83.9882L946.841 83.1928C947.145 84.367 947.717 85.2477 948.56 85.8348C949.413 86.422 950.525 86.7155 951.898 86.7155C953.461 86.7155 954.701 86.3841 955.62 85.7212C956.548 85.0488 957.012 84.2439 957.012 83.3064C957.012 82.5488 956.747 81.9144 956.216 81.403C955.686 80.8822 954.872 80.4939 953.773 80.2382L950.137 79.386C948.139 78.9125 946.671 78.1786 945.734 77.1843C944.805 76.1805 944.341 74.9257 944.341 73.4201C944.341 72.189 944.687 71.1 945.378 70.153C946.079 69.206 947.031 68.4627 948.234 67.9229C949.446 67.3831 950.819 67.1132 952.353 67.1132C954.512 67.1132 956.207 67.5867 957.438 68.5337C958.679 69.4807 959.559 70.7307 960.08 72.2837ZM974.672 89.6701C972.569 89.6701 970.756 89.206 969.231 88.278C967.716 87.3405 966.547 86.0337 965.723 84.3576C964.908 82.672 964.501 80.7117 964.501 78.4769C964.501 76.242 964.908 74.2723 965.723 72.5678C966.547 70.8538 967.693 69.5185 969.16 68.5621C970.638 67.5962 972.361 67.1132 974.331 67.1132C975.467 67.1132 976.589 67.3026 977.697 67.6814C978.805 68.0602 979.814 68.6757 980.723 69.528C981.632 70.3708 982.356 71.4882 982.896 72.8803C983.436 74.2723 983.706 75.9863 983.706 78.0223V79.4428H966.888V76.5451H980.297C980.297 75.314 980.051 74.2155 979.558 73.2496C979.075 72.2837 978.384 71.5214 977.484 70.9627C976.594 70.404 975.543 70.1246 974.331 70.1246C972.996 70.1246 971.84 70.456 970.865 71.1189C969.899 71.7723 969.156 72.6246 968.635 73.6757C968.114 74.7269 967.854 75.8538 967.854 77.0564V78.9882C967.854 80.636 968.138 82.0327 968.706 83.1786C969.283 84.3149 970.084 85.1814 971.106 85.778C972.129 86.3651 973.318 86.6587 974.672 86.6587C975.552 86.6587 976.348 86.5356 977.058 86.2894C977.778 86.0337 978.398 85.6549 978.919 85.153C979.44 84.6417 979.842 84.0072 980.126 83.2496L983.365 84.1587C983.024 85.2572 982.451 86.2231 981.646 87.0564C980.841 87.8803 979.847 88.5242 978.663 88.9882C977.48 89.4428 976.149 89.6701 974.672 89.6701Z" fill="#808080"/>
<g opacity="0.6">
<path d="M988.481 51.0532C1001.42 38.1112 1003.57 19.2796 993.285 8.99079C982.997 -1.29688 964.166 0.853824 951.224 13.7951C938.282 26.7367 942.026 51.4621 946.421 55.8576C949.972 59.4088 975.539 63.9945 988.481 51.0532Z" fill="#F89939"/>
<path d="M935.374 32.3524C927.866 24.844 916.939 23.594 910.968 29.5646C904.999 35.5345 906.247 46.463 913.756 53.9702C921.266 61.4808 935.613 59.3083 938.161 56.7579C940.223 54.6993 942.885 39.8615 935.374 32.3524Z" fill="#3499CD"/>
</g>
</g>
<defs>
<filter id="filter0_f_1_3" x="340.5" y="120.946" width="86.5858" height="78.0109" filterUnits="userSpaceOnUse" color-interpolation-filters="sRGB">
<feFlood flood-opacity="0" result="BackgroundImageFix"/>
<feBlend mode="normal" in="SourceGraphic" in2="BackgroundImageFix" result="shape"/>
<feGaussianBlur stdDeviation="2.13333" result="effect1_foregroundBlur_1_3"/>
</filter>
<filter id="filter1_f_1_3" x="421.947" y="5.1811" width="86.5858" height="78.0109" filterUnits="userSpaceOnUse" color-interpolation-filters="sRGB">
<feFlood flood-opacity="0" result="BackgroundImageFix"/>
<feBlend mode="normal" in="SourceGraphic" in2="BackgroundImageFix" result="shape"/>
<feGaussianBlur stdDeviation="2.13333" result="effect1_foregroundBlur_1_3"/>
</filter>
<filter id="filter2_f_1_3" x="280.043" y="18.7526" width="86.5858" height="78.0109" filterUnits="userSpaceOnUse" color-interpolation-filters="sRGB">
<feFlood flood-opacity="0" result="BackgroundImageFix"/>
<feBlend mode="normal" in="SourceGraphic" in2="BackgroundImageFix" result="shape"/>
<feGaussianBlur stdDeviation="2.13333" result="effect1_foregroundBlur_1_3"/>
</filter>
<filter id="filter3_f_1_3" x="383.352" y="143.098" width="86.5858" height="78.011" filterUnits="userSpaceOnUse" color-interpolation-filters="sRGB">
<feFlood flood-opacity="0" result="BackgroundImageFix"/>
<feBlend mode="normal" in="SourceGraphic" in2="BackgroundImageFix" result="shape"/>
<feGaussianBlur stdDeviation="2.13333" result="effect1_foregroundBlur_1_3"/>
</filter>
<filter id="filter4_f_1_3" x="852.292" y="102.101" width="138.014" height="78.2014" filterUnits="userSpaceOnUse" color-interpolation-filters="sRGB">
<feFlood flood-opacity="0" result="BackgroundImageFix"/>
<feBlend mode="normal" in="SourceGraphic" in2="BackgroundImageFix" result="shape"/>
<feGaussianBlur stdDeviation="2.13333" result="effect1_foregroundBlur_1_3"/>
</filter>
<linearGradient id="paint0_linear_1_3" x1="464.523" y1="87.4937" x2="340.625" y2="189.593" gradientUnits="userSpaceOnUse">
<stop stop-color="#A4C0E4"/>
<stop offset="1" stop-color="#A4C0E4" stop-opacity="0"/>
</linearGradient>
<linearGradient id="paint1_linear_1_3" x1="345.009" y1="125.126" x2="467.089" y2="271.208" gradientUnits="userSpaceOnUse">
<stop stop-color="#2E3436"/>
<stop offset="1" stop-color="#D7DCDD"/>
</linearGradient>
<linearGradient id="paint2_linear_1_3" x1="545.97" y1="-28.2713" x2="422.072" y2="73.8282" gradientUnits="userSpaceOnUse">
<stop stop-color="#A4C0E4"/>
<stop offset="1" stop-color="#A4C0E4" stop-opacity="0"/>
</linearGradient>
<linearGradient id="paint3_linear_1_3" x1="426.456" y1="9.36148" x2="548.536" y2="155.443" gradientUnits="userSpaceOnUse">
<stop stop-color="#2E3436"/>
<stop offset="1" stop-color="#D7DCDD"/>
</linearGradient>
<linearGradient id="paint4_linear_1_3" x1="404.066" y1="-14.6998" x2="280.168" y2="87.3998" gradientUnits="userSpaceOnUse">
<stop stop-color="#A4C0E4"/>
<stop offset="1" stop-color="#A4C0E4" stop-opacity="0"/>
</linearGradient>
<linearGradient id="paint5_linear_1_3" x1="284.552" y1="22.933" x2="406.632" y2="169.015" gradientUnits="userSpaceOnUse">
<stop stop-color="#2E3436"/>
<stop offset="1" stop-color="#D7DCDD"/>
</linearGradient>
<linearGradient id="paint6_linear_1_3" x1="507.375" y1="109.645" x2="383.477" y2="211.745" gradientUnits="userSpaceOnUse">
<stop stop-color="#A4C0E4"/>
<stop offset="1" stop-color="#A4C0E4" stop-opacity="0"/>
</linearGradient>
<linearGradient id="paint7_linear_1_3" x1="387.861" y1="147.278" x2="509.941" y2="293.36" gradientUnits="userSpaceOnUse">
<stop stop-color="#2E3436"/>
<stop offset="1" stop-color="#D7DCDD"/>
</linearGradient>
<linearGradient id="paint8_linear_1_3" x1="1027.74" y1="68.8387" x2="903.846" y2="170.938" gradientUnits="userSpaceOnUse">
<stop stop-color="#A4C0E4"/>
<stop offset="1" stop-color="#A4C0E4" stop-opacity="0"/>
</linearGradient>
<linearGradient id="paint9_linear_1_3" x1="856.839" y1="106.471" x2="978.92" y2="252.553" gradientUnits="userSpaceOnUse">
<stop stop-color="#2E3436"/>
<stop offset="1" stop-color="#D7DCDD"/>
</linearGradient>
<clipPath id="clip0_1_3">
<rect width="1111.18" height="226.772" fill="white"/>
</clipPath>
</defs>
</svg>
