<svg xmlns="http://www.w3.org/2000/svg" xmlns:xlink="http://www.w3.org/1999/xlink" width="1640" zoomAndPan="magnify" viewBox="0 0 1230 693.000001" height="924" preserveAspectRatio="xMidYMid meet" version="1.0"><defs><g/><clipPath id="19a3ee5231"><path d="M 0.886719 0 L 1229.113281 0 L 1229.113281 692 L 0.886719 692 Z M 0.886719 0 " clip-rule="nonzero"/></clipPath><clipPath id="b2de717029"><path d="M 256.714844 235.152344 L 438.699219 235.152344 L 438.699219 283 L 256.714844 283 Z M 256.714844 235.152344 " clip-rule="nonzero"/></clipPath><clipPath id="376c7e314b"><path d="M 256.714844 297 L 341 297 L 341 468.816406 L 256.714844 468.816406 Z M 256.714844 297 " clip-rule="nonzero"/></clipPath><clipPath id="6a73724a34"><path d="M 355 297 L 438.699219 297 L 438.699219 468.816406 L 355 468.816406 Z M 355 297 " clip-rule="nonzero"/></clipPath><clipPath id="6fa8c992e0"><path d="M 766.84375 265.484375 L 1042 265.484375 L 1042 313 L 766.84375 313 Z M 766.84375 265.484375 " clip-rule="nonzero"/></clipPath><clipPath id="182f035424"><path d="M 1056 265.484375 L 1138.308594 265.484375 L 1138.308594 313 L 1056 313 Z M 1056 265.484375 " clip-rule="nonzero"/></clipPath><clipPath id="6bc53038a6"><path d="M 766.84375 327 L 849 327 L 849 436.988281 L 766.84375 436.988281 Z M 766.84375 327 " clip-rule="nonzero"/></clipPath><clipPath id="93c440e7b1"><path d="M 863 327 L 1042 327 L 1042 436.988281 L 863 436.988281 Z M 863 327 " clip-rule="nonzero"/></clipPath><clipPath id="dd3d60a3f3"><path d="M 1056 327 L 1138.308594 327 L 1138.308594 436.988281 L 1056 436.988281 Z M 1056 327 " clip-rule="nonzero"/></clipPath><clipPath id="2fc74e8ae3"><path d="M 285.828125 503.265625 L 467.816406 503.265625 L 467.816406 551 L 285.828125 551 Z M 285.828125 503.265625 " clip-rule="nonzero"/></clipPath><clipPath id="47ea232c6c"><path d="M 285.828125 565 L 369 565 L 369 674.769531 L 285.828125 674.769531 Z M 285.828125 565 " clip-rule="nonzero"/></clipPath><clipPath id="573b3b62f9"><path d="M 383 565 L 467.816406 565 L 467.816406 674.769531 L 383 674.769531 Z M 383 565 " clip-rule="nonzero"/></clipPath><clipPath id="2fecb8636b"><path d="M 458 398 L 524 398 L 524 546 L 458 546 Z M 458 398 " clip-rule="nonzero"/></clipPath><clipPath id="9c6926f6dd"><path d="M 508.378906 389.621094 L 540.476562 536.691406 L 487.796875 548.191406 L 455.695312 401.121094 Z M 508.378906 389.621094 " clip-rule="nonzero"/></clipPath><clipPath id="7ee6eb727e"><path d="M 540.445312 536.542969 L 508.34375 389.472656 L 455.664062 400.972656 L 487.761719 548.042969 Z M 540.445312 536.542969 " clip-rule="nonzero"/></clipPath><clipPath id="01e71e208e"><path d="M 506 308 L 733 308 L 733 411.894531 L 506 411.894531 Z M 506 308 " clip-rule="nonzero"/></clipPath><clipPath id="9bd3c1cb3b"><path d="M 214.644531 20.214844 L 494.742188 20.214844 L 494.742188 71 L 214.644531 71 Z M 214.644531 20.214844 " clip-rule="nonzero"/></clipPath><clipPath id="8d30ea6450"><path d="M 214.644531 85 L 298 85 L 298 200.703125 L 214.644531 200.703125 Z M 214.644531 85 " clip-rule="nonzero"/></clipPath><clipPath id="c1d6b5cebc"><path d="M 312 85 L 494.742188 85 L 494.742188 200.703125 L 312 200.703125 Z M 312 85 " clip-rule="nonzero"/></clipPath><clipPath id="b537368dc1"><path d="M 102 142 L 198 142 L 198 295 L 102 295 Z M 102 142 " clip-rule="nonzero"/></clipPath><clipPath id="a733b650f8"><path d="M 172.488281 120.746094 L 247.277344 262.492188 L 144.613281 316.664062 L 69.820312 174.917969 Z M 172.488281 120.746094 " clip-rule="nonzero"/></clipPath><clipPath id="7a63ad8a9a"><path d="M 172.488281 120.746094 L 247.277344 262.492188 L 144.613281 316.664062 L 69.820312 174.917969 Z M 172.488281 120.746094 " clip-rule="nonzero"/></clipPath><clipPath id="c5b7745791"><path d="M 525 494.589844 L 578.007812 494.589844 L 578.007812 547.761719 L 525 547.761719 Z M 525 494.589844 " clip-rule="nonzero"/></clipPath><clipPath id="8fccdb1e7e"><path d="M 195 304 L 241.816406 304 L 241.816406 339 L 195 339 Z M 195 304 " clip-rule="nonzero"/></clipPath><clipPath id="3395208350"><path d="M 192.390625 303.5 L 238 303.5 L 238 340.945312 L 192.390625 340.945312 Z M 192.390625 303.5 " clip-rule="nonzero"/></clipPath></defs><g clip-path="url(#19a3ee5231)"><path fill="#ffffff" d="M 0.886719 0 L 1229.113281 0 L 1229.113281 699.492188 L 0.886719 699.492188 Z M 0.886719 0 " fill-opacity="1" fill-rule="nonzero"/><path fill="#ffffff" d="M 0.886719 0 L 1229.113281 0 L 1229.113281 692 L 0.886719 692 Z M 0.886719 0 " fill-opacity="1" fill-rule="nonzero"/><path fill="#ffffff" d="M 0.886719 0 L 1229.113281 0 L 1229.113281 692 L 0.886719 692 Z M 0.886719 0 " fill-opacity="1" fill-rule="nonzero"/></g><g clip-path="url(#b2de717029)"><path fill="#99acff" d="M 256.714844 235.152344 L 256.714844 282.335938 L 340.121094 282.335938 L 340.121094 235.152344 Z M 355.101562 235.152344 L 355.101562 282.335938 L 438.085938 282.335938 L 438.085938 235.152344 Z M 355.101562 235.152344 " fill-opacity="1" fill-rule="nonzero"/></g><g clip-path="url(#376c7e314b)"><path fill="#cdd6ff" d="M 256.714844 297.3125 L 256.714844 344.496094 L 340.121094 344.496094 L 340.121094 297.3125 Z M 256.714844 359.472656 L 256.714844 406.65625 L 340.121094 406.65625 L 340.121094 359.472656 Z M 256.714844 421.636719 L 256.714844 468.816406 L 340.121094 468.816406 L 340.121094 421.636719 Z M 256.714844 421.636719 " fill-opacity="1" fill-rule="nonzero"/></g><g clip-path="url(#6a73724a34)"><path fill="#e3e8ff" d="M 355.101562 297.3125 L 355.101562 344.496094 L 438.085938 344.496094 L 438.085938 297.3125 Z M 355.101562 359.472656 L 355.101562 406.65625 L 438.085938 406.65625 L 438.085938 359.472656 Z M 355.101562 421.636719 L 355.101562 468.816406 L 438.085938 468.816406 L 438.085938 421.636719 Z M 355.101562 421.636719 " fill-opacity="1" fill-rule="nonzero"/></g><g clip-path="url(#6fa8c992e0)"><path fill="#99acff" d="M 766.84375 265.484375 L 766.84375 312.667969 L 848.40625 312.667969 L 848.40625 265.484375 Z M 863.386719 265.484375 L 863.386719 312.667969 L 944.949219 312.667969 L 944.949219 265.484375 Z M 959.925781 265.484375 L 959.925781 312.667969 L 1041.488281 312.667969 L 1041.488281 265.484375 Z M 959.925781 265.484375 " fill-opacity="1" fill-rule="nonzero"/></g><g clip-path="url(#182f035424)"><path fill="#ffd699" d="M 1056.46875 265.484375 L 1056.46875 312.667969 L 1138.03125 312.667969 L 1138.03125 265.484375 Z M 1056.46875 265.484375 " fill-opacity="1" fill-rule="nonzero"/></g><g clip-path="url(#6bc53038a6)"><path fill="#cdd6ff" d="M 766.84375 327.644531 L 766.84375 374.828125 L 848.40625 374.828125 L 848.40625 327.644531 Z M 766.84375 389.804688 L 766.84375 436.988281 L 848.40625 436.988281 L 848.40625 389.804688 Z M 766.84375 389.804688 " fill-opacity="1" fill-rule="nonzero"/></g><g clip-path="url(#93c440e7b1)"><path fill="#e3e8ff" d="M 863.386719 327.644531 L 863.386719 374.828125 L 944.949219 374.828125 L 944.949219 327.644531 Z M 959.925781 327.644531 L 959.925781 374.828125 L 1041.488281 374.828125 L 1041.488281 327.644531 Z M 863.386719 389.804688 L 863.386719 436.988281 L 944.949219 436.988281 L 944.949219 389.804688 Z M 959.925781 389.804688 L 959.925781 436.988281 L 1041.488281 436.988281 L 1041.488281 389.804688 Z M 959.925781 389.804688 " fill-opacity="1" fill-rule="nonzero"/></g><g clip-path="url(#dd3d60a3f3)"><path fill="#ffebcd" d="M 1056.46875 327.644531 L 1056.46875 374.828125 L 1138.03125 374.828125 L 1138.03125 327.644531 Z M 1056.46875 389.804688 L 1056.46875 436.988281 L 1138.03125 436.988281 L 1138.03125 389.804688 Z M 1056.46875 389.804688 " fill-opacity="1" fill-rule="nonzero"/></g><g clip-path="url(#2fc74e8ae3)"><path fill="#ffd699" d="M 285.828125 503.265625 L 285.828125 550.449219 L 368.214844 550.449219 L 368.214844 503.265625 Z M 383.195312 503.265625 L 383.195312 550.449219 L 467.203125 550.449219 L 467.203125 503.265625 Z M 383.195312 503.265625 " fill-opacity="1" fill-rule="nonzero"/></g><g clip-path="url(#47ea232c6c)"><path fill="#ffebcd" d="M 285.828125 565.425781 L 285.828125 612.609375 L 368.214844 612.609375 L 368.214844 565.425781 Z M 285.828125 627.585938 L 285.828125 674.769531 L 368.214844 674.769531 L 368.214844 627.585938 Z M 285.828125 627.585938 " fill-opacity="1" fill-rule="nonzero"/></g><g clip-path="url(#573b3b62f9)"><path fill="#fff4e3" d="M 383.195312 565.425781 L 383.195312 612.609375 L 467.203125 612.609375 L 467.203125 565.425781 Z M 383.195312 627.585938 L 383.195312 674.769531 L 467.203125 674.769531 L 467.203125 627.585938 Z M 383.195312 627.585938 " fill-opacity="1" fill-rule="nonzero"/></g><g clip-path="url(#2fecb8636b)"><g clip-path="url(#9c6926f6dd)"><g clip-path="url(#7ee6eb727e)"><path fill="#000000" d="M 493.710938 544.203125 C 495.722656 546.109375 497.421875 545.242188 499.011719 544.261719 C 503.421875 541.574219 507.179688 538.199219 509.882812 533.71875 C 518.472656 519.441406 522.671875 503.835938 523.28125 487.324219 C 523.914062 470.398438 519.550781 454.777344 509.621094 440.917969 C 504.945312 434.398438 499.910156 428.132812 494.859375 421.523438 C 495.722656 421.617188 496.796875 421.636719 497.855469 421.84375 C 505.035156 423.207031 506.527344 422.625 510.625 416.492188 C 511.542969 415.121094 512.207031 413.589844 513.207031 411.746094 C 511.675781 411.203125 510.585938 410.785156 509.472656 410.433594 C 497.515625 406.609375 485.480469 403 473.632812 398.835938 C 470.757812 397.835938 468.832031 398.402344 466.90625 399.890625 C 463.03125 402.902344 460.730469 407.210938 458.890625 411.574219 C 458.25 413.101562 459.09375 415.507812 459.765625 417.316406 C 464.765625 430.5625 468.496094 444.140625 470.398438 458.160156 C 470.988281 462.53125 470.914062 466.984375 471.167969 471.792969 C 472.652344 472.003906 473.992188 470.824219 475.105469 469.730469 C 480.332031 464.589844 484.363281 458.84375 483.773438 450.996094 C 483.488281 447.289062 483.238281 443.585938 482.921875 439.886719 C 482.78125 438.242188 482.472656 436.605469 482.191406 434.589844 C 491.792969 440.1875 506.503906 470.804688 507.964844 487.640625 C 509.738281 508.117188 504.589844 526.945312 493.710938 544.203125 Z M 493.710938 544.203125 " fill-opacity="1" fill-rule="nonzero"/></g></g></g><g clip-path="url(#01e71e208e)"><path fill="#000000" d="M 732.09375 349.316406 C 731.472656 346.4375 729.492188 343.5 729.753906 341.183594 C 730.734375 332.792969 725.652344 330.253906 719.292969 328.15625 C 692.488281 319.265625 665.203125 312.433594 637.117188 309.035156 C 627.078125 307.816406 624.597656 310.511719 626.816406 320.363281 C 627.097656 321.582031 627.558594 322.761719 627.898438 323.980469 C 628.996094 328.078125 632.058594 329.953125 635.839844 329.253906 C 639.539062 328.554688 642.859375 329.433594 646.238281 330.113281 C 654.902344 331.832031 663.484375 333.832031 672.105469 335.730469 C 672.363281 336.1875 672.402344 336.667969 672.222656 337.167969 C 662.921875 337.96875 653.640625 339.066406 644.339844 339.484375 C 620.476562 340.542969 597.03125 346.257812 572.890625 345.140625 C 561.40625 344.621094 549.746094 346.519531 538.285156 348.15625 C 529.261719 349.457031 520.121094 348.777344 511.199219 350.675781 C 506.660156 351.632812 505.820312 352.792969 508.5 356.488281 C 513.820312 363.882812 519.378906 371.234375 530.402344 368.855469 C 532.34375 368.4375 534.421875 368.65625 536.441406 368.4375 C 555.265625 366.539062 574.148438 365.480469 593.011719 364.28125 C 613.394531 362.984375 633.777344 361.605469 654.160156 360.207031 C 660.960938 359.746094 667.742188 359.105469 675.203125 358.507812 C 673.125 361.84375 670.421875 362.824219 668.203125 364.339844 C 660.683594 369.476562 654 375.589844 647.101562 381.484375 C 636.558594 390.476562 641.078125 402.464844 646.21875 409.816406 C 647.179688 411.195312 648.421875 411.976562 649.761719 410.097656 C 653.820312 404.421875 659.863281 401.066406 665.402344 397.191406 C 681.285156 386.039062 697.929688 376.070312 714.570312 366.101562 C 718.890625 363.503906 723.230469 360.945312 727.574219 358.425781 C 731.113281 356.390625 733.152344 354.171875 732.09375 349.316406 Z M 675.183594 336.089844 C 675.304688 336.027344 675.425781 336.007812 675.542969 335.910156 C 675.464844 336.007812 675.363281 336.070312 675.265625 336.128906 C 675.246094 336.128906 675.222656 336.109375 675.183594 336.089844 Z M 675.183594 336.089844 " fill-opacity="1" fill-rule="nonzero"/></g><g clip-path="url(#9bd3c1cb3b)"><path fill="#ff9999" d="M 214.644531 20.214844 L 214.644531 70.390625 L 297.914062 70.390625 L 297.914062 20.214844 Z M 312.894531 20.214844 L 312.894531 70.390625 L 396.164062 70.390625 L 396.164062 20.214844 Z M 411.140625 20.214844 L 411.140625 70.390625 L 494.410156 70.390625 L 494.410156 20.214844 Z M 411.140625 20.214844 " fill-opacity="1" fill-rule="nonzero"/></g><g clip-path="url(#8d30ea6450)"><path fill="#ffcdcd" d="M 214.644531 85.371094 L 214.644531 135.546875 L 297.914062 135.546875 L 297.914062 85.371094 Z M 214.644531 150.527344 L 214.644531 200.703125 L 297.914062 200.703125 L 297.914062 150.527344 Z M 214.644531 150.527344 " fill-opacity="1" fill-rule="nonzero"/></g><g clip-path="url(#c1d6b5cebc)"><path fill="#ffe3e3" d="M 312.894531 85.371094 L 312.894531 135.546875 L 396.164062 135.546875 L 396.164062 85.371094 Z M 411.140625 85.371094 L 411.140625 135.546875 L 494.410156 135.546875 L 494.410156 85.371094 Z M 312.894531 150.527344 L 312.894531 200.703125 L 396.164062 200.703125 L 396.164062 150.527344 Z M 411.140625 150.527344 L 411.140625 200.703125 L 494.410156 200.703125 L 494.410156 150.527344 Z M 411.140625 150.527344 " fill-opacity="1" fill-rule="nonzero"/></g><g clip-path="url(#b537368dc1)"><g clip-path="url(#a733b650f8)"><g clip-path="url(#7a63ad8a9a)"><path fill="#000000" d="M 150.191406 268.789062 C 145.835938 263.425781 141.859375 258.609375 137.988281 253.730469 C 131.09375 245.035156 124.570312 236.074219 119.136719 226.386719 C 117.550781 223.5625 116.792969 220.257812 115.054688 217.566406 C 111.222656 211.613281 109.292969 204.886719 106.910156 198.390625 C 104.996094 193.160156 103.726562 187.582031 102.996094 182.050781 C 101.492188 170.660156 105.78125 161.445312 114.71875 154.246094 C 125.203125 145.792969 137.164062 141.855469 150.570312 142.160156 C 163.078125 142.4375 174.933594 145.6875 186.476562 150.253906 C 187.214844 150.550781 187.894531 151.023438 188.550781 151.484375 C 188.734375 151.601562 188.742188 151.980469 188.828125 152.230469 C 185.296875 157.324219 180.003906 159.285156 174.042969 158.121094 C 165.171875 156.386719 156.285156 154.660156 147.34375 153.355469 C 140.964844 152.417969 134.496094 152.589844 128.074219 153.695312 C 124.488281 154.308594 122.164062 156.101562 120.644531 159.398438 C 118.539062 164.015625 117.796875 168.824219 117.984375 173.824219 C 118.242188 180.753906 120.046875 187.347656 122.472656 193.796875 C 126.480469 204.382812 132.230469 214.023438 138.429688 223.429688 C 147.792969 237.636719 158.351562 250.929688 169.621094 263.660156 C 170.324219 264.453125 171.167969 265.109375 172.636719 266.449219 C 172.246094 264.292969 172.058594 262.988281 171.792969 261.71875 C 170.449219 255.273438 169.007812 248.847656 167.746094 242.398438 C 166.582031 236.476562 167.082031 235.667969 172.550781 233.367188 C 179.511719 230.429688 180.382812 230.859375 182.398438 238.0625 C 185.167969 247.972656 187.835938 257.898438 190.800781 267.75 C 192.457031 273.253906 194.617188 278.613281 196.53125 284.039062 C 196.976562 285.289062 197.316406 286.570312 197.777344 288.074219 C 194.507812 289.738281 191.664062 291.609375 188.546875 292.660156 C 183.632812 294.316406 178.777344 294.917969 173.726562 291.972656 C 168.183594 288.746094 162.132812 286.402344 156.3125 283.640625 C 149.570312 280.4375 142.429688 278.527344 135.125 277.261719 C 133.023438 276.898438 130.789062 277.199219 128.621094 277.238281 C 127.199219 277.265625 125.785156 277.378906 123.9375 277.488281 C 124.945312 274.460938 126.824219 273.265625 128.949219 272.289062 C 134.273438 269.8125 139.855469 268.648438 145.714844 268.824219 C 147.023438 268.824219 148.324219 268.789062 150.191406 268.789062 Z M 134.285156 245.585938 C 134.796875 246.761719 135.109375 248.09375 135.871094 249.085938 C 139.492188 253.789062 143.238281 258.40625 146.992188 263.042969 C 148.425781 264.589844 149.859375 266.136719 151.296875 267.683594 C 151.484375 267.480469 151.671875 267.273438 151.851562 267.070312 C 150.191406 265.726562 148.519531 264.386719 146.859375 263.042969 C 146.410156 261.984375 146.15625 260.761719 145.472656 259.875 C 141.769531 255.058594 137.957031 250.335938 134.152344 245.582031 C 132.714844 243.597656 131.273438 241.613281 129.835938 239.628906 C 129.574219 239.859375 129.308594 240.097656 129.050781 240.328125 C 130.792969 242.082031 132.539062 243.832031 134.285156 245.585938 Z M 122.273438 229.671875 C 122.460938 229.597656 122.65625 229.519531 122.839844 229.433594 C 122.539062 228.914062 122.238281 228.410156 121.9375 227.890625 C 121.808594 227.957031 121.6875 228.023438 121.558594 228.089844 C 121.792969 228.605469 122.042969 229.140625 122.273438 229.671875 Z M 122.273438 229.671875 " fill-opacity="1" fill-rule="nonzero"/></g></g></g><g clip-path="url(#c5b7745791)"><path fill="#59bd7c" d="M 573.214844 516.390625 L 556.355469 516.390625 L 556.355469 499.617188 C 556.355469 499.300781 556.324219 498.988281 556.261719 498.683594 C 556.203125 498.375 556.109375 498.074219 555.988281 497.785156 C 555.867188 497.492188 555.722656 497.21875 555.546875 496.957031 C 555.371094 496.695312 555.171875 496.453125 554.945312 496.230469 C 554.722656 496.007812 554.480469 495.8125 554.21875 495.636719 C 553.957031 495.460938 553.679688 495.3125 553.386719 495.195312 C 553.09375 495.074219 552.792969 494.984375 552.484375 494.921875 C 552.175781 494.859375 551.863281 494.828125 551.546875 494.828125 C 551.230469 494.828125 550.917969 494.859375 550.609375 494.921875 C 550.296875 494.984375 549.996094 495.074219 549.707031 495.195312 C 549.414062 495.3125 549.136719 495.460938 548.875 495.636719 C 548.609375 495.8125 548.367188 496.007812 548.144531 496.230469 C 547.921875 496.453125 547.722656 496.695312 547.546875 496.957031 C 547.371094 497.21875 547.222656 497.492188 547.101562 497.785156 C 546.980469 498.074219 546.890625 498.375 546.828125 498.683594 C 546.765625 498.988281 546.734375 499.300781 546.734375 499.617188 L 546.734375 516.390625 L 529.878906 516.390625 C 529.5625 516.390625 529.25 516.421875 528.941406 516.480469 C 528.628906 516.542969 528.328125 516.632812 528.035156 516.753906 C 527.746094 516.875 527.46875 517.023438 527.203125 517.195312 C 526.941406 517.371094 526.699219 517.570312 526.472656 517.792969 C 526.25 518.011719 526.050781 518.253906 525.875 518.515625 C 525.699219 518.777344 525.550781 519.054688 525.429688 519.34375 C 525.308594 519.636719 525.21875 519.933594 525.15625 520.242188 C 525.09375 520.550781 525.0625 520.863281 525.0625 521.175781 C 525.0625 521.492188 525.09375 521.800781 525.15625 522.109375 C 525.21875 522.417969 525.308594 522.71875 525.429688 523.007812 C 525.550781 523.300781 525.699219 523.574219 525.875 523.835938 C 526.050781 524.097656 526.25 524.339844 526.472656 524.5625 C 526.699219 524.785156 526.941406 524.984375 527.203125 525.15625 C 527.46875 525.332031 527.746094 525.480469 528.035156 525.601562 C 528.328125 525.71875 528.628906 525.808594 528.941406 525.871094 C 529.25 525.933594 529.5625 525.964844 529.878906 525.960938 L 546.738281 525.960938 L 546.738281 542.734375 C 546.738281 543.046875 546.769531 543.359375 546.828125 543.667969 C 546.890625 543.976562 546.980469 544.273438 547.101562 544.566406 C 547.222656 544.855469 547.371094 545.132812 547.546875 545.394531 C 547.722656 545.652344 547.921875 545.894531 548.144531 546.117188 C 548.367188 546.339844 548.613281 546.539062 548.875 546.714844 C 549.136719 546.886719 549.414062 547.035156 549.707031 547.15625 C 549.996094 547.277344 550.296875 547.367188 550.609375 547.429688 C 550.917969 547.488281 551.230469 547.519531 551.546875 547.519531 C 551.863281 547.519531 552.175781 547.488281 552.484375 547.429688 C 552.796875 547.367188 553.097656 547.277344 553.386719 547.15625 C 553.679688 547.035156 553.957031 546.886719 554.21875 546.714844 C 554.480469 546.539062 554.726562 546.339844 554.949219 546.117188 C 555.171875 545.894531 555.371094 545.652344 555.546875 545.394531 C 555.722656 545.132812 555.871094 544.855469 555.992188 544.566406 C 556.113281 544.273438 556.203125 543.976562 556.265625 543.667969 C 556.324219 543.359375 556.355469 543.046875 556.355469 542.734375 L 556.355469 525.960938 L 573.21875 525.960938 C 573.53125 525.960938 573.847656 525.929688 574.15625 525.867188 C 574.464844 525.808594 574.765625 525.714844 575.058594 525.597656 C 575.351562 525.476562 575.625 525.328125 575.890625 525.152344 C 576.152344 524.980469 576.394531 524.78125 576.617188 524.558594 C 576.839844 524.335938 577.042969 524.09375 577.214844 523.832031 C 577.390625 523.574219 577.539062 523.296875 577.660156 523.007812 C 577.78125 522.714844 577.875 522.417969 577.933594 522.109375 C 577.996094 521.800781 578.027344 521.488281 578.027344 521.175781 C 578.027344 520.859375 577.996094 520.550781 577.933594 520.242188 C 577.875 519.933594 577.78125 519.632812 577.660156 519.34375 C 577.539062 519.054688 577.390625 518.777344 577.214844 518.515625 C 577.042969 518.253906 576.839844 518.011719 576.617188 517.789062 C 576.394531 517.570312 576.152344 517.371094 575.890625 517.195312 C 575.625 517.019531 575.351562 516.875 575.058594 516.753906 C 574.765625 516.632812 574.464844 516.542969 574.15625 516.480469 C 573.847656 516.417969 573.53125 516.390625 573.21875 516.390625 Z M 573.214844 516.390625 " fill-opacity="1" fill-rule="nonzero"/></g><g fill="#000000" fill-opacity="1"><g transform="translate(387.161762, 332.303724)"><g><path d="M 7.046875 -10.890625 L 1.328125 -21.25 L 4.984375 -21.25 L 7.96875 -15.609375 C 8.101562 -15.359375 8.222656 -15.117188 8.328125 -14.890625 C 8.441406 -14.660156 8.539062 -14.457031 8.625 -14.28125 C 8.695312 -14.082031 8.773438 -13.894531 8.859375 -13.71875 L 8.9375 -13.71875 C 9 -13.894531 9.078125 -14.082031 9.171875 -14.28125 C 9.253906 -14.4375 9.34375 -14.628906 9.4375 -14.859375 C 9.539062 -15.085938 9.660156 -15.328125 9.796875 -15.578125 L 12.875 -21.25 L 16.375 -21.25 L 10.65625 -11.015625 L 16.734375 0 L 13.078125 0 L 9.734375 -6.25 C 9.597656 -6.53125 9.476562 -6.78125 9.375 -7 C 9.28125 -7.226562 9.1875 -7.429688 9.09375 -7.609375 C 9.007812 -7.804688 8.929688 -7.992188 8.859375 -8.171875 L 8.765625 -8.171875 C 8.679688 -7.992188 8.601562 -7.804688 8.53125 -7.609375 C 8.445312 -7.429688 8.351562 -7.226562 8.25 -7 C 8.15625 -6.78125 8.039062 -6.539062 7.90625 -6.28125 L 4.546875 0 L 0.96875 0 Z M 7.046875 -10.890625 "/></g></g></g><g clip-path="url(#8fccdb1e7e)"><path fill="#ed1c24" d="M 195.230469 304.5625 C 195.414062 304.972656 195.546875 305.394531 195.785156 305.773438 C 196.027344 306.148438 196.238281 306.53125 196.492188 306.894531 C 197.019531 307.664062 197.738281 308.425781 198.410156 309.066406 C 199.777344 310.367188 201.222656 311.582031 202.667969 312.796875 C 205.601562 315.253906 208.625 317.601562 211.675781 319.902344 C 217.65625 324.417969 223.820312 328.671875 230.167969 332.671875 C 231.917969 333.777344 233.683594 334.859375 235.457031 335.921875 C 236.40625 336.488281 237.335938 336.953125 238.292969 337.429688 C 239.332031 337.945312 240.375 338.308594 241.484375 337.78125 C 241.710938 337.65625 241.820312 337.464844 241.816406 337.207031 C 241.710938 336.183594 241.101562 335.445312 240.277344 334.875 C 239.5 334.335938 238.777344 333.800781 237.964844 333.316406 C 236.335938 332.355469 234.722656 331.371094 233.117188 330.375 C 229.964844 328.410156 226.859375 326.386719 223.789062 324.296875 C 217.667969 320.121094 211.800781 315.679688 206.042969 311.074219 C 204.367188 309.738281 202.734375 308.34375 201.035156 307.042969 C 200.195312 306.398438 199.328125 305.796875 198.429688 305.238281 C 197.554688 304.695312 196.578125 304.375 195.605469 304.078125 C 195.304688 303.984375 195.121094 304.3125 195.230469 304.5625 Z M 195.230469 304.5625 " fill-opacity="1" fill-rule="nonzero"/></g><g clip-path="url(#3395208350)"><path fill="#ed1c24" d="M 237.394531 303.5625 C 236.480469 303.699219 235.730469 304.167969 234.945312 304.621094 C 234.109375 305.105469 233.242188 305.535156 232.46875 306.117188 C 230.921875 307.28125 229.394531 308.460938 227.878906 309.664062 C 224.910156 312.019531 221.980469 314.421875 219.039062 316.8125 C 213.230469 321.53125 207.328125 326.179688 201.664062 331.082031 C 198.496094 333.84375 195.515625 336.800781 192.71875 339.945312 C 192.386719 340.320312 192.808594 340.929688 193.269531 340.660156 C 194.929688 339.691406 196.617188 338.710938 198.191406 337.613281 C 199.71875 336.554688 201.289062 335.550781 202.757812 334.417969 C 205.78125 332.09375 208.742188 329.691406 211.699219 327.277344 C 217.503906 322.539062 223.339844 317.832031 229.089844 313.027344 C 230.707031 311.679688 232.3125 310.320312 233.890625 308.925781 C 234.699219 308.195312 235.453125 307.410156 236.152344 306.570312 C 236.832031 305.773438 237.546875 305.082031 237.914062 304.078125 C 238.03125 303.742188 237.679688 303.515625 237.398438 303.558594 Z M 237.394531 303.5625 " fill-opacity="1" fill-rule="nonzero"/></g><g fill="#000000" fill-opacity="1"><g transform="translate(387.161762, 396.562755)"><g><path d="M 0.734375 -21.25 L 4.15625 -21.25 L 8.109375 -12.515625 C 8.253906 -12.222656 8.367188 -11.925781 8.453125 -11.625 C 8.546875 -11.332031 8.617188 -11.078125 8.671875 -10.859375 C 8.753906 -10.585938 8.816406 -10.320312 8.859375 -10.0625 L 9 -10.0625 C 9.039062 -10.320312 9.097656 -10.585938 9.171875 -10.859375 C 9.234375 -11.078125 9.304688 -11.332031 9.390625 -11.625 C 9.484375 -11.925781 9.585938 -12.222656 9.703125 -12.515625 L 13.546875 -21.25 L 16.96875 -21.25 L 10.484375 -7.375 L 10.484375 0 L 7.234375 0 L 7.234375 -7.375 Z M 0.734375 -21.25 "/></g></g></g><g fill="#000000" fill-opacity="1"><g transform="translate(387.161762, 457.125369)"><g><path d="M 14.96875 -21.25 L 14.96875 -18.265625 L 5.8125 -2.859375 L 5.8125 -2.796875 L 7.875 -2.921875 L 15.296875 -2.921875 L 15.296875 0 L 2.421875 0 L 2.421875 -2.953125 L 11.5625 -18.390625 L 11.5625 -18.453125 L 9.4375 -18.328125 L 2.65625 -18.328125 L 2.65625 -21.25 Z M 14.96875 -21.25 "/></g></g></g><g fill="#000000" fill-opacity="1"><g transform="translate(879.248407, 361.491713)"><g><path d="M 7.375 -11.953125 C 7.375 -12.441406 7.503906 -12.832031 7.765625 -13.125 C 8.035156 -13.425781 8.398438 -13.578125 8.859375 -13.578125 C 9.304688 -13.578125 9.660156 -13.425781 9.921875 -13.125 C 10.191406 -12.832031 10.328125 -12.441406 10.328125 -11.953125 L 10.328125 -9 C 10.328125 -8.507812 10.191406 -8.113281 9.921875 -7.8125 C 9.660156 -7.519531 9.304688 -7.375 8.859375 -7.375 C 8.398438 -7.375 8.035156 -7.519531 7.765625 -7.8125 C 7.503906 -8.113281 7.375 -8.507812 7.375 -9 Z M 5.015625 -6.046875 C 5.015625 -4.828125 5.359375 -3.859375 6.046875 -3.140625 C 6.734375 -2.421875 7.671875 -2.0625 8.859375 -2.0625 C 10.035156 -2.0625 10.96875 -2.421875 11.65625 -3.140625 C 12.34375 -3.859375 12.6875 -4.828125 12.6875 -6.046875 L 12.6875 -15.203125 C 12.6875 -16.421875 12.34375 -17.390625 11.65625 -18.109375 C 10.96875 -18.828125 10.035156 -19.1875 8.859375 -19.1875 C 7.671875 -19.1875 6.734375 -18.828125 6.046875 -18.109375 C 5.359375 -17.390625 5.015625 -16.421875 5.015625 -15.203125 Z M 2.359375 -6.046875 L 2.359375 -15.203125 C 2.359375 -16.160156 2.507812 -17.035156 2.8125 -17.828125 C 3.125 -18.617188 3.554688 -19.285156 4.109375 -19.828125 C 4.671875 -20.378906 5.347656 -20.800781 6.140625 -21.09375 C 6.941406 -21.394531 7.847656 -21.546875 8.859375 -21.546875 C 9.859375 -21.546875 10.753906 -21.394531 11.546875 -21.09375 C 12.347656 -20.800781 13.03125 -20.378906 13.59375 -19.828125 C 14.15625 -19.285156 14.585938 -18.617188 14.890625 -17.828125 C 15.191406 -17.035156 15.34375 -16.160156 15.34375 -15.203125 L 15.34375 -6.046875 C 15.34375 -5.085938 15.191406 -4.21875 14.890625 -3.4375 C 14.585938 -2.65625 14.15625 -1.988281 13.59375 -1.4375 C 13.03125 -0.894531 12.34375 -0.46875 11.53125 -0.15625 C 10.726562 0.144531 9.835938 0.296875 8.859375 0.296875 C 7.847656 0.296875 6.941406 0.148438 6.140625 -0.140625 C 5.347656 -0.441406 4.671875 -0.867188 4.109375 -1.421875 C 3.554688 -1.972656 3.125 -2.640625 2.8125 -3.421875 C 2.507812 -4.210938 2.359375 -5.085938 2.359375 -6.046875 Z M 2.359375 -6.046875 "/></g></g></g><g fill="#000000" fill-opacity="1"><g transform="translate(896.955693, 361.491713)"><g><path d="M 6.3125 -2.328125 C 6.3125 -3.097656 6.539062 -3.710938 7 -4.171875 C 7.46875 -4.640625 8.085938 -4.875 8.859375 -4.875 C 9.617188 -4.875 10.226562 -4.640625 10.6875 -4.171875 C 11.15625 -3.710938 11.390625 -3.097656 11.390625 -2.328125 C 11.390625 -1.546875 11.15625 -0.910156 10.6875 -0.421875 C 10.226562 0.0546875 9.617188 0.296875 8.859375 0.296875 C 8.085938 0.296875 7.46875 0.0546875 7 -0.421875 C 6.539062 -0.910156 6.3125 -1.546875 6.3125 -2.328125 Z M 6.3125 -2.328125 "/></g></g></g><g fill="#000000" fill-opacity="1"><g transform="translate(914.662978, 361.491713)"><g><path d="M 2.65625 -2.359375 L 8.359375 -2.359375 L 8.359375 -17.265625 C 8.359375 -17.421875 8.359375 -17.601562 8.359375 -17.8125 C 8.367188 -18.019531 8.375 -18.210938 8.375 -18.390625 C 8.375 -18.566406 8.378906 -18.71875 8.390625 -18.84375 C 8.398438 -18.96875 8.40625 -19.03125 8.40625 -19.03125 L 8.359375 -19.03125 C 8.210938 -18.914062 8.070312 -18.8125 7.9375 -18.71875 C 7.820312 -18.613281 7.695312 -18.507812 7.5625 -18.40625 C 7.4375 -18.3125 7.316406 -18.226562 7.203125 -18.15625 L 3.046875 -15.3125 L 3.046875 -18 L 7.609375 -21.25 L 11.015625 -21.25 L 11.015625 -2.359375 L 15.796875 -2.359375 L 15.796875 0 L 2.65625 0 Z M 2.65625 -2.359375 "/></g></g></g><g fill="#000000" fill-opacity="1"><g transform="translate(974.443836, 361.491713)"><g><path d="M 7.375 -11.953125 C 7.375 -12.441406 7.503906 -12.832031 7.765625 -13.125 C 8.035156 -13.425781 8.398438 -13.578125 8.859375 -13.578125 C 9.304688 -13.578125 9.660156 -13.425781 9.921875 -13.125 C 10.191406 -12.832031 10.328125 -12.441406 10.328125 -11.953125 L 10.328125 -9 C 10.328125 -8.507812 10.191406 -8.113281 9.921875 -7.8125 C 9.660156 -7.519531 9.304688 -7.375 8.859375 -7.375 C 8.398438 -7.375 8.035156 -7.519531 7.765625 -7.8125 C 7.503906 -8.113281 7.375 -8.507812 7.375 -9 Z M 5.015625 -6.046875 C 5.015625 -4.828125 5.359375 -3.859375 6.046875 -3.140625 C 6.734375 -2.421875 7.671875 -2.0625 8.859375 -2.0625 C 10.035156 -2.0625 10.96875 -2.421875 11.65625 -3.140625 C 12.34375 -3.859375 12.6875 -4.828125 12.6875 -6.046875 L 12.6875 -15.203125 C 12.6875 -16.421875 12.34375 -17.390625 11.65625 -18.109375 C 10.96875 -18.828125 10.035156 -19.1875 8.859375 -19.1875 C 7.671875 -19.1875 6.734375 -18.828125 6.046875 -18.109375 C 5.359375 -17.390625 5.015625 -16.421875 5.015625 -15.203125 Z M 2.359375 -6.046875 L 2.359375 -15.203125 C 2.359375 -16.160156 2.507812 -17.035156 2.8125 -17.828125 C 3.125 -18.617188 3.554688 -19.285156 4.109375 -19.828125 C 4.671875 -20.378906 5.347656 -20.800781 6.140625 -21.09375 C 6.941406 -21.394531 7.847656 -21.546875 8.859375 -21.546875 C 9.859375 -21.546875 10.753906 -21.394531 11.546875 -21.09375 C 12.347656 -20.800781 13.03125 -20.378906 13.59375 -19.828125 C 14.15625 -19.285156 14.585938 -18.617188 14.890625 -17.828125 C 15.191406 -17.035156 15.34375 -16.160156 15.34375 -15.203125 L 15.34375 -6.046875 C 15.34375 -5.085938 15.191406 -4.21875 14.890625 -3.4375 C 14.585938 -2.65625 14.15625 -1.988281 13.59375 -1.4375 C 13.03125 -0.894531 12.34375 -0.46875 11.53125 -0.15625 C 10.726562 0.144531 9.835938 0.296875 8.859375 0.296875 C 7.847656 0.296875 6.941406 0.148438 6.140625 -0.140625 C 5.347656 -0.441406 4.671875 -0.867188 4.109375 -1.421875 C 3.554688 -1.972656 3.125 -2.640625 2.8125 -3.421875 C 2.507812 -4.210938 2.359375 -5.085938 2.359375 -6.046875 Z M 2.359375 -6.046875 "/></g></g></g><g fill="#000000" fill-opacity="1"><g transform="translate(992.151122, 361.491713)"><g><path d="M 6.3125 -2.328125 C 6.3125 -3.097656 6.539062 -3.710938 7 -4.171875 C 7.46875 -4.640625 8.085938 -4.875 8.859375 -4.875 C 9.617188 -4.875 10.226562 -4.640625 10.6875 -4.171875 C 11.15625 -3.710938 11.390625 -3.097656 11.390625 -2.328125 C 11.390625 -1.546875 11.15625 -0.910156 10.6875 -0.421875 C 10.226562 0.0546875 9.617188 0.296875 8.859375 0.296875 C 8.085938 0.296875 7.46875 0.0546875 7 -0.421875 C 6.539062 -0.910156 6.3125 -1.546875 6.3125 -2.328125 Z M 6.3125 -2.328125 "/></g></g></g><g fill="#000000" fill-opacity="1"><g transform="translate(1009.858407, 361.491713)"><g><path d="M 9.765625 -13.578125 C 11.554688 -13.578125 12.957031 -13.019531 13.96875 -11.90625 C 14.988281 -10.789062 15.5 -9.28125 15.5 -7.375 L 15.5 -5.90625 C 15.5 -4.957031 15.335938 -4.097656 15.015625 -3.328125 C 14.703125 -2.566406 14.253906 -1.921875 13.671875 -1.390625 C 13.097656 -0.859375 12.394531 -0.441406 11.5625 -0.140625 C 10.738281 0.148438 9.816406 0.296875 8.796875 0.296875 C 6.984375 0.296875 5.492188 -0.128906 4.328125 -0.984375 C 3.171875 -1.835938 2.46875 -2.984375 2.21875 -4.421875 L 5.015625 -4.421875 C 5.210938 -3.710938 5.640625 -3.140625 6.296875 -2.703125 C 6.960938 -2.273438 7.804688 -2.0625 8.828125 -2.0625 C 10.023438 -2.0625 10.976562 -2.40625 11.6875 -3.09375 C 12.394531 -3.78125 12.75 -4.71875 12.75 -5.90625 L 12.75 -7.375 C 12.75 -8.5625 12.394531 -9.5 11.6875 -10.1875 C 10.976562 -10.875 10.015625 -11.21875 8.796875 -11.21875 C 7.273438 -11.21875 6.15625 -10.675781 5.4375 -9.59375 L 2.71875 -9.59375 L 2.859375 -21.25 L 14.546875 -21.25 L 14.546875 -18.828125 L 5.4375 -18.828125 L 5.34375 -11.328125 L 5.515625 -11.328125 C 5.691406 -11.742188 5.96875 -12.117188 6.34375 -12.453125 C 6.65625 -12.734375 7.082031 -12.988281 7.625 -13.21875 C 8.164062 -13.457031 8.878906 -13.578125 9.765625 -13.578125 Z M 9.765625 -13.578125 "/></g></g></g><g fill="#000000" fill-opacity="1"><g transform="translate(879.248407, 422.054328)"><g><path d="M 7.375 -11.953125 C 7.375 -12.441406 7.503906 -12.832031 7.765625 -13.125 C 8.035156 -13.425781 8.398438 -13.578125 8.859375 -13.578125 C 9.304688 -13.578125 9.660156 -13.425781 9.921875 -13.125 C 10.191406 -12.832031 10.328125 -12.441406 10.328125 -11.953125 L 10.328125 -9 C 10.328125 -8.507812 10.191406 -8.113281 9.921875 -7.8125 C 9.660156 -7.519531 9.304688 -7.375 8.859375 -7.375 C 8.398438 -7.375 8.035156 -7.519531 7.765625 -7.8125 C 7.503906 -8.113281 7.375 -8.507812 7.375 -9 Z M 5.015625 -6.046875 C 5.015625 -4.828125 5.359375 -3.859375 6.046875 -3.140625 C 6.734375 -2.421875 7.671875 -2.0625 8.859375 -2.0625 C 10.035156 -2.0625 10.96875 -2.421875 11.65625 -3.140625 C 12.34375 -3.859375 12.6875 -4.828125 12.6875 -6.046875 L 12.6875 -15.203125 C 12.6875 -16.421875 12.34375 -17.390625 11.65625 -18.109375 C 10.96875 -18.828125 10.035156 -19.1875 8.859375 -19.1875 C 7.671875 -19.1875 6.734375 -18.828125 6.046875 -18.109375 C 5.359375 -17.390625 5.015625 -16.421875 5.015625 -15.203125 Z M 2.359375 -6.046875 L 2.359375 -15.203125 C 2.359375 -16.160156 2.507812 -17.035156 2.8125 -17.828125 C 3.125 -18.617188 3.554688 -19.285156 4.109375 -19.828125 C 4.671875 -20.378906 5.347656 -20.800781 6.140625 -21.09375 C 6.941406 -21.394531 7.847656 -21.546875 8.859375 -21.546875 C 9.859375 -21.546875 10.753906 -21.394531 11.546875 -21.09375 C 12.347656 -20.800781 13.03125 -20.378906 13.59375 -19.828125 C 14.15625 -19.285156 14.585938 -18.617188 14.890625 -17.828125 C 15.191406 -17.035156 15.34375 -16.160156 15.34375 -15.203125 L 15.34375 -6.046875 C 15.34375 -5.085938 15.191406 -4.21875 14.890625 -3.4375 C 14.585938 -2.65625 14.15625 -1.988281 13.59375 -1.4375 C 13.03125 -0.894531 12.34375 -0.46875 11.53125 -0.15625 C 10.726562 0.144531 9.835938 0.296875 8.859375 0.296875 C 7.847656 0.296875 6.941406 0.148438 6.140625 -0.140625 C 5.347656 -0.441406 4.671875 -0.867188 4.109375 -1.421875 C 3.554688 -1.972656 3.125 -2.640625 2.8125 -3.421875 C 2.507812 -4.210938 2.359375 -5.085938 2.359375 -6.046875 Z M 2.359375 -6.046875 "/></g></g></g><g fill="#000000" fill-opacity="1"><g transform="translate(896.955693, 422.054328)"><g><path d="M 6.3125 -2.328125 C 6.3125 -3.097656 6.539062 -3.710938 7 -4.171875 C 7.46875 -4.640625 8.085938 -4.875 8.859375 -4.875 C 9.617188 -4.875 10.226562 -4.640625 10.6875 -4.171875 C 11.15625 -3.710938 11.390625 -3.097656 11.390625 -2.328125 C 11.390625 -1.546875 11.15625 -0.910156 10.6875 -0.421875 C 10.226562 0.0546875 9.617188 0.296875 8.859375 0.296875 C 8.085938 0.296875 7.46875 0.0546875 7 -0.421875 C 6.539062 -0.910156 6.3125 -1.546875 6.3125 -2.328125 Z M 6.3125 -2.328125 "/></g></g></g><g fill="#000000" fill-opacity="1"><g transform="translate(914.662978, 422.054328)"><g><path d="M 8.828125 -21.546875 C 9.828125 -21.546875 10.742188 -21.390625 11.578125 -21.078125 C 12.421875 -20.765625 13.140625 -20.316406 13.734375 -19.734375 C 14.335938 -19.148438 14.804688 -18.445312 15.140625 -17.625 C 15.472656 -16.8125 15.640625 -15.90625 15.640625 -14.90625 C 15.640625 -13.726562 15.367188 -12.46875 14.828125 -11.125 C 14.285156 -9.789062 13.523438 -8.316406 12.546875 -6.703125 L 8.53125 0 L 5.3125 0 L 9.796875 -7.078125 C 10.210938 -7.734375 10.546875 -8.25 10.796875 -8.625 C 11.054688 -9.007812 11.265625 -9.3125 11.421875 -9.53125 C 11.597656 -9.769531 11.734375 -9.9375 11.828125 -10.03125 L 11.390625 -10.03125 C 11.234375 -9.71875 11.007812 -9.441406 10.71875 -9.203125 C 10.4375 -8.992188 10.082031 -8.800781 9.65625 -8.625 C 9.238281 -8.457031 8.6875 -8.375 8 -8.375 C 7.132812 -8.375 6.335938 -8.53125 5.609375 -8.84375 C 4.878906 -9.164062 4.253906 -9.609375 3.734375 -10.171875 C 3.210938 -10.742188 2.800781 -11.425781 2.5 -12.21875 C 2.207031 -13.019531 2.0625 -13.914062 2.0625 -14.90625 C 2.0625 -15.882812 2.226562 -16.78125 2.5625 -17.59375 C 2.894531 -18.414062 3.363281 -19.117188 3.96875 -19.703125 C 4.570312 -20.285156 5.285156 -20.738281 6.109375 -21.0625 C 6.929688 -21.382812 7.835938 -21.546875 8.828125 -21.546875 Z M 4.71875 -14.90625 C 4.71875 -14.257812 4.820312 -13.671875 5.03125 -13.140625 C 5.238281 -12.617188 5.523438 -12.171875 5.890625 -11.796875 C 6.253906 -11.429688 6.6875 -11.144531 7.1875 -10.9375 C 7.6875 -10.726562 8.234375 -10.625 8.828125 -10.625 C 10.046875 -10.625 11.039062 -11.015625 11.8125 -11.796875 C 12.59375 -12.585938 12.984375 -13.625 12.984375 -14.90625 C 12.984375 -16.207031 12.597656 -17.242188 11.828125 -18.015625 C 11.066406 -18.796875 10.066406 -19.1875 8.828125 -19.1875 C 8.234375 -19.1875 7.6875 -19.082031 7.1875 -18.875 C 6.6875 -18.664062 6.253906 -18.375 5.890625 -18 C 5.523438 -17.625 5.238281 -17.175781 5.03125 -16.65625 C 4.820312 -16.132812 4.71875 -15.550781 4.71875 -14.90625 Z M 4.71875 -14.90625 "/></g></g></g><g fill="#000000" fill-opacity="1"><g transform="translate(974.443836, 422.054328)"><g><path d="M 7.375 -11.953125 C 7.375 -12.441406 7.503906 -12.832031 7.765625 -13.125 C 8.035156 -13.425781 8.398438 -13.578125 8.859375 -13.578125 C 9.304688 -13.578125 9.660156 -13.425781 9.921875 -13.125 C 10.191406 -12.832031 10.328125 -12.441406 10.328125 -11.953125 L 10.328125 -9 C 10.328125 -8.507812 10.191406 -8.113281 9.921875 -7.8125 C 9.660156 -7.519531 9.304688 -7.375 8.859375 -7.375 C 8.398438 -7.375 8.035156 -7.519531 7.765625 -7.8125 C 7.503906 -8.113281 7.375 -8.507812 7.375 -9 Z M 5.015625 -6.046875 C 5.015625 -4.828125 5.359375 -3.859375 6.046875 -3.140625 C 6.734375 -2.421875 7.671875 -2.0625 8.859375 -2.0625 C 10.035156 -2.0625 10.96875 -2.421875 11.65625 -3.140625 C 12.34375 -3.859375 12.6875 -4.828125 12.6875 -6.046875 L 12.6875 -15.203125 C 12.6875 -16.421875 12.34375 -17.390625 11.65625 -18.109375 C 10.96875 -18.828125 10.035156 -19.1875 8.859375 -19.1875 C 7.671875 -19.1875 6.734375 -18.828125 6.046875 -18.109375 C 5.359375 -17.390625 5.015625 -16.421875 5.015625 -15.203125 Z M 2.359375 -6.046875 L 2.359375 -15.203125 C 2.359375 -16.160156 2.507812 -17.035156 2.8125 -17.828125 C 3.125 -18.617188 3.554688 -19.285156 4.109375 -19.828125 C 4.671875 -20.378906 5.347656 -20.800781 6.140625 -21.09375 C 6.941406 -21.394531 7.847656 -21.546875 8.859375 -21.546875 C 9.859375 -21.546875 10.753906 -21.394531 11.546875 -21.09375 C 12.347656 -20.800781 13.03125 -20.378906 13.59375 -19.828125 C 14.15625 -19.285156 14.585938 -18.617188 14.890625 -17.828125 C 15.191406 -17.035156 15.34375 -16.160156 15.34375 -15.203125 L 15.34375 -6.046875 C 15.34375 -5.085938 15.191406 -4.21875 14.890625 -3.4375 C 14.585938 -2.65625 14.15625 -1.988281 13.59375 -1.4375 C 13.03125 -0.894531 12.34375 -0.46875 11.53125 -0.15625 C 10.726562 0.144531 9.835938 0.296875 8.859375 0.296875 C 7.847656 0.296875 6.941406 0.148438 6.140625 -0.140625 C 5.347656 -0.441406 4.671875 -0.867188 4.109375 -1.421875 C 3.554688 -1.972656 3.125 -2.640625 2.8125 -3.421875 C 2.507812 -4.210938 2.359375 -5.085938 2.359375 -6.046875 Z M 2.359375 -6.046875 "/></g></g></g><g fill="#000000" fill-opacity="1"><g transform="translate(992.151122, 422.054328)"><g><path d="M 6.3125 -2.328125 C 6.3125 -3.097656 6.539062 -3.710938 7 -4.171875 C 7.46875 -4.640625 8.085938 -4.875 8.859375 -4.875 C 9.617188 -4.875 10.226562 -4.640625 10.6875 -4.171875 C 11.15625 -3.710938 11.390625 -3.097656 11.390625 -2.328125 C 11.390625 -1.546875 11.15625 -0.910156 10.6875 -0.421875 C 10.226562 0.0546875 9.617188 0.296875 8.859375 0.296875 C 8.085938 0.296875 7.46875 0.0546875 7 -0.421875 C 6.539062 -0.910156 6.3125 -1.546875 6.3125 -2.328125 Z M 6.3125 -2.328125 "/></g></g></g><g fill="#000000" fill-opacity="1"><g transform="translate(1009.858407, 422.054328)"><g><path d="M 7.375 -11.953125 C 7.375 -12.441406 7.503906 -12.832031 7.765625 -13.125 C 8.035156 -13.425781 8.398438 -13.578125 8.859375 -13.578125 C 9.304688 -13.578125 9.660156 -13.425781 9.921875 -13.125 C 10.191406 -12.832031 10.328125 -12.441406 10.328125 -11.953125 L 10.328125 -9 C 10.328125 -8.507812 10.191406 -8.113281 9.921875 -7.8125 C 9.660156 -7.519531 9.304688 -7.375 8.859375 -7.375 C 8.398438 -7.375 8.035156 -7.519531 7.765625 -7.8125 C 7.503906 -8.113281 7.375 -8.507812 7.375 -9 Z M 5.015625 -6.046875 C 5.015625 -4.828125 5.359375 -3.859375 6.046875 -3.140625 C 6.734375 -2.421875 7.671875 -2.0625 8.859375 -2.0625 C 10.035156 -2.0625 10.96875 -2.421875 11.65625 -3.140625 C 12.34375 -3.859375 12.6875 -4.828125 12.6875 -6.046875 L 12.6875 -15.203125 C 12.6875 -16.421875 12.34375 -17.390625 11.65625 -18.109375 C 10.96875 -18.828125 10.035156 -19.1875 8.859375 -19.1875 C 7.671875 -19.1875 6.734375 -18.828125 6.046875 -18.109375 C 5.359375 -17.390625 5.015625 -16.421875 5.015625 -15.203125 Z M 2.359375 -6.046875 L 2.359375 -15.203125 C 2.359375 -16.160156 2.507812 -17.035156 2.8125 -17.828125 C 3.125 -18.617188 3.554688 -19.285156 4.109375 -19.828125 C 4.671875 -20.378906 5.347656 -20.800781 6.140625 -21.09375 C 6.941406 -21.394531 7.847656 -21.546875 8.859375 -21.546875 C 9.859375 -21.546875 10.753906 -21.394531 11.546875 -21.09375 C 12.347656 -20.800781 13.03125 -20.378906 13.59375 -19.828125 C 14.15625 -19.285156 14.585938 -18.617188 14.890625 -17.828125 C 15.191406 -17.035156 15.34375 -16.160156 15.34375 -15.203125 L 15.34375 -6.046875 C 15.34375 -5.085938 15.191406 -4.21875 14.890625 -3.4375 C 14.585938 -2.65625 14.15625 -1.988281 13.59375 -1.4375 C 13.03125 -0.894531 12.34375 -0.46875 11.53125 -0.15625 C 10.726562 0.144531 9.835938 0.296875 8.859375 0.296875 C 7.847656 0.296875 6.941406 0.148438 6.140625 -0.140625 C 5.347656 -0.441406 4.671875 -0.867188 4.109375 -1.421875 C 3.554688 -1.972656 3.125 -2.640625 2.8125 -3.421875 C 2.507812 -4.210938 2.359375 -5.085938 2.359375 -6.046875 Z M 2.359375 -6.046875 "/></g></g></g><g fill="#000000" fill-opacity="1"><g transform="translate(274.056945, 395.992375)"><g><path d="M 2.59375 0 L 2.59375 -2.828125 L 7.203125 -2.828125 L 7.203125 -18.421875 L 2.59375 -18.421875 L 2.59375 -21.25 L 15.109375 -21.25 L 15.109375 -18.421875 L 10.5 -18.421875 L 10.5 -2.828125 L 15.109375 -2.828125 L 15.109375 0 Z M 2.59375 0 "/></g></g></g><g fill="#000000" fill-opacity="1"><g transform="translate(291.764231, 395.992375)"><g><path d="M 8.640625 -2.953125 C 9.765625 -2.953125 10.671875 -3.285156 11.359375 -3.953125 C 12.046875 -4.617188 12.390625 -5.515625 12.390625 -6.640625 L 12.390625 -14.640625 C 12.390625 -15.742188 12.046875 -16.628906 11.359375 -17.296875 C 10.671875 -17.960938 9.765625 -18.296875 8.640625 -18.296875 L 5.609375 -18.296875 L 5.609375 -2.953125 Z M 2.359375 0 L 2.359375 -21.25 L 8.640625 -21.25 C 9.703125 -21.25 10.660156 -21.09375 11.515625 -20.78125 C 12.378906 -20.46875 13.117188 -20.019531 13.734375 -19.4375 C 14.359375 -18.851562 14.835938 -18.148438 15.171875 -17.328125 C 15.503906 -16.515625 15.671875 -15.617188 15.671875 -14.640625 L 15.671875 -6.640625 C 15.671875 -5.640625 15.503906 -4.726562 15.171875 -3.90625 C 14.835938 -3.09375 14.359375 -2.394531 13.734375 -1.8125 C 13.117188 -1.226562 12.378906 -0.78125 11.515625 -0.46875 C 10.660156 -0.15625 9.703125 0 8.640625 0 Z M 2.359375 0 "/></g></g></g><g fill="#000000" fill-opacity="1"><g transform="translate(309.471516, 395.992375)"><g><path d="M 15.46875 -15.46875 C 15.46875 -13.925781 15.050781 -12.460938 14.21875 -11.078125 C 13.394531 -9.691406 12.078125 -8.234375 10.265625 -6.703125 L 6.96875 -3.921875 C 6.8125 -3.785156 6.644531 -3.660156 6.46875 -3.546875 C 6.289062 -3.441406 6.125 -3.34375 5.96875 -3.25 C 5.789062 -3.144531 5.613281 -3.054688 5.4375 -2.984375 L 5.4375 -2.859375 C 5.726562 -2.878906 6.019531 -2.898438 6.3125 -2.921875 C 6.59375 -2.921875 6.890625 -2.925781 7.203125 -2.9375 C 7.515625 -2.945312 7.8125 -2.953125 8.09375 -2.953125 L 15.703125 -2.953125 L 15.703125 0 L 1.859375 0 L 1.859375 -3.484375 L 8.140625 -8.703125 C 8.847656 -9.316406 9.457031 -9.898438 9.96875 -10.453125 C 10.488281 -11.003906 10.910156 -11.546875 11.234375 -12.078125 C 11.554688 -12.609375 11.789062 -13.140625 11.9375 -13.671875 C 12.082031 -14.203125 12.15625 -14.757812 12.15625 -15.34375 C 12.15625 -16.375 11.847656 -17.1875 11.234375 -17.78125 C 10.628906 -18.382812 9.804688 -18.6875 8.765625 -18.6875 C 7.640625 -18.6875 6.734375 -18.390625 6.046875 -17.796875 C 5.359375 -17.203125 5.015625 -16.414062 5.015625 -15.4375 L 1.71875 -15.4375 C 1.726562 -16.363281 1.90625 -17.195312 2.25 -17.9375 C 2.601562 -18.6875 3.085938 -19.328125 3.703125 -19.859375 C 4.328125 -20.390625 5.070312 -20.800781 5.9375 -21.09375 C 6.800781 -21.394531 7.753906 -21.546875 8.796875 -21.546875 C 9.796875 -21.546875 10.703125 -21.398438 11.515625 -21.109375 C 12.335938 -20.828125 13.039062 -20.421875 13.625 -19.890625 C 14.21875 -19.359375 14.671875 -18.71875 14.984375 -17.96875 C 15.304688 -17.226562 15.46875 -16.394531 15.46875 -15.46875 Z M 15.46875 -15.46875 "/></g></g></g><g fill="#000000" fill-opacity="1"><g transform="translate(274.056945, 454.101341)"><g><path d="M 2.59375 0 L 2.59375 -2.828125 L 7.203125 -2.828125 L 7.203125 -18.421875 L 2.59375 -18.421875 L 2.59375 -21.25 L 15.109375 -21.25 L 15.109375 -18.421875 L 10.5 -18.421875 L 10.5 -2.828125 L 15.109375 -2.828125 L 15.109375 0 Z M 2.59375 0 "/></g></g></g><g fill="#000000" fill-opacity="1"><g transform="translate(291.764231, 454.101341)"><g><path d="M 8.640625 -2.953125 C 9.765625 -2.953125 10.671875 -3.285156 11.359375 -3.953125 C 12.046875 -4.617188 12.390625 -5.515625 12.390625 -6.640625 L 12.390625 -14.640625 C 12.390625 -15.742188 12.046875 -16.628906 11.359375 -17.296875 C 10.671875 -17.960938 9.765625 -18.296875 8.640625 -18.296875 L 5.609375 -18.296875 L 5.609375 -2.953125 Z M 2.359375 0 L 2.359375 -21.25 L 8.640625 -21.25 C 9.703125 -21.25 10.660156 -21.09375 11.515625 -20.78125 C 12.378906 -20.46875 13.117188 -20.019531 13.734375 -19.4375 C 14.359375 -18.851562 14.835938 -18.148438 15.171875 -17.328125 C 15.503906 -16.515625 15.671875 -15.617188 15.671875 -14.640625 L 15.671875 -6.640625 C 15.671875 -5.640625 15.503906 -4.726562 15.171875 -3.90625 C 14.835938 -3.09375 14.359375 -2.394531 13.734375 -1.8125 C 13.117188 -1.226562 12.378906 -0.78125 11.515625 -0.46875 C 10.660156 -0.15625 9.703125 0 8.640625 0 Z M 2.359375 0 "/></g></g></g><g fill="#000000" fill-opacity="1"><g transform="translate(309.471516, 454.101341)"><g><path d="M 9 -12.84375 C 10.039062 -12.820312 10.972656 -12.644531 11.796875 -12.3125 C 12.628906 -11.988281 13.335938 -11.539062 13.921875 -10.96875 C 14.515625 -10.40625 14.96875 -9.726562 15.28125 -8.9375 C 15.601562 -8.15625 15.765625 -7.269531 15.765625 -6.28125 C 15.765625 -5.28125 15.597656 -4.375 15.265625 -3.5625 C 14.929688 -2.757812 14.457031 -2.066406 13.84375 -1.484375 C 13.226562 -0.910156 12.488281 -0.46875 11.625 -0.15625 C 10.757812 0.144531 9.796875 0.296875 8.734375 0.296875 C 7.773438 0.296875 6.878906 0.164062 6.046875 -0.09375 C 5.222656 -0.363281 4.507812 -0.75 3.90625 -1.25 C 3.3125 -1.75 2.828125 -2.351562 2.453125 -3.0625 C 2.078125 -3.769531 1.847656 -4.566406 1.765625 -5.453125 L 5.015625 -5.453125 C 5.171875 -4.566406 5.582031 -3.851562 6.25 -3.3125 C 6.925781 -2.78125 7.753906 -2.515625 8.734375 -2.515625 C 9.878906 -2.515625 10.796875 -2.859375 11.484375 -3.546875 C 12.171875 -4.234375 12.515625 -5.144531 12.515625 -6.28125 C 12.515625 -7.425781 12.160156 -8.347656 11.453125 -9.046875 C 10.742188 -9.742188 9.800781 -10.09375 8.625 -10.09375 L 6.078125 -10.09375 L 6.078125 -13.28125 L 9.828125 -16.96875 C 10.046875 -17.1875 10.269531 -17.382812 10.5 -17.5625 C 10.738281 -17.738281 10.96875 -17.90625 11.1875 -18.0625 C 11.425781 -18.21875 11.660156 -18.375 11.890625 -18.53125 L 11.890625 -18.65625 C 11.660156 -18.613281 11.40625 -18.582031 11.125 -18.5625 C 10.882812 -18.519531 10.613281 -18.488281 10.3125 -18.46875 C 10.007812 -18.457031 9.691406 -18.453125 9.359375 -18.453125 L 2.5625 -18.453125 L 2.5625 -21.25 L 14.8125 -21.25 L 14.8125 -17.96875 L 10.21875 -13.75 C 10.050781 -13.632812 9.898438 -13.519531 9.765625 -13.40625 C 9.628906 -13.300781 9.503906 -13.203125 9.390625 -13.109375 C 9.242188 -13.003906 9.113281 -12.914062 9 -12.84375 Z M 9 -12.84375 "/></g></g></g><g fill="#000000" fill-opacity="1"><g transform="translate(274.056945, 332.303724)"><g><path d="M 2.59375 0 L 2.59375 -2.828125 L 7.203125 -2.828125 L 7.203125 -18.421875 L 2.59375 -18.421875 L 2.59375 -21.25 L 15.109375 -21.25 L 15.109375 -18.421875 L 10.5 -18.421875 L 10.5 -2.828125 L 15.109375 -2.828125 L 15.109375 0 Z M 2.59375 0 "/></g></g></g><g fill="#000000" fill-opacity="1"><g transform="translate(291.764231, 332.303724)"><g><path d="M 8.640625 -2.953125 C 9.765625 -2.953125 10.671875 -3.285156 11.359375 -3.953125 C 12.046875 -4.617188 12.390625 -5.515625 12.390625 -6.640625 L 12.390625 -14.640625 C 12.390625 -15.742188 12.046875 -16.628906 11.359375 -17.296875 C 10.671875 -17.960938 9.765625 -18.296875 8.640625 -18.296875 L 5.609375 -18.296875 L 5.609375 -2.953125 Z M 2.359375 0 L 2.359375 -21.25 L 8.640625 -21.25 C 9.703125 -21.25 10.660156 -21.09375 11.515625 -20.78125 C 12.378906 -20.46875 13.117188 -20.019531 13.734375 -19.4375 C 14.359375 -18.851562 14.835938 -18.148438 15.171875 -17.328125 C 15.503906 -16.515625 15.671875 -15.617188 15.671875 -14.640625 L 15.671875 -6.640625 C 15.671875 -5.640625 15.503906 -4.726562 15.171875 -3.90625 C 14.835938 -3.09375 14.359375 -2.394531 13.734375 -1.8125 C 13.117188 -1.226562 12.378906 -0.78125 11.515625 -0.46875 C 10.660156 -0.15625 9.703125 0 8.640625 0 Z M 2.359375 0 "/></g></g></g><g fill="#000000" fill-opacity="1"><g transform="translate(309.471516, 332.303724)"><g><path d="M 2.453125 -2.859375 L 8.140625 -2.859375 L 8.140625 -16.5 C 8.140625 -17.007812 8.15625 -17.46875 8.1875 -17.875 C 8.21875 -18.28125 8.234375 -18.488281 8.234375 -18.5 L 8.171875 -18.5 C 8.054688 -18.382812 7.929688 -18.269531 7.796875 -18.15625 C 7.671875 -18.050781 7.539062 -17.945312 7.40625 -17.84375 C 7.269531 -17.738281 7.125 -17.632812 6.96875 -17.53125 L 2.796875 -14.765625 L 2.796875 -17.953125 L 7.53125 -21.25 L 11.390625 -21.25 L 11.390625 -2.859375 L 16.09375 -2.859375 L 16.09375 0 L 2.453125 0 Z M 2.453125 -2.859375 "/></g></g></g><path stroke-linecap="butt" transform="matrix(0.747636, -0.000000000000000161, 0.000000000000000161, 0.748919, 247.150074, 320.695475)" fill="none" stroke-linejoin="miter" d="M -0.00218885 1.997453 L 264.466825 1.997453 " stroke="#ff9999" stroke-width="4" stroke-opacity="1" stroke-miterlimit="4"/><g fill="#000000" fill-opacity="1"><g transform="translate(779.502736, 362.095821)"><g><path d="M 2.59375 0 L 2.59375 -2.828125 L 7.203125 -2.828125 L 7.203125 -18.421875 L 2.59375 -18.421875 L 2.59375 -21.25 L 15.109375 -21.25 L 15.109375 -18.421875 L 10.5 -18.421875 L 10.5 -2.828125 L 15.109375 -2.828125 L 15.109375 0 Z M 2.59375 0 "/></g></g></g><g fill="#000000" fill-opacity="1"><g transform="translate(797.210022, 362.095821)"><g><path d="M 8.640625 -2.953125 C 9.765625 -2.953125 10.671875 -3.285156 11.359375 -3.953125 C 12.046875 -4.617188 12.390625 -5.515625 12.390625 -6.640625 L 12.390625 -14.640625 C 12.390625 -15.742188 12.046875 -16.628906 11.359375 -17.296875 C 10.671875 -17.960938 9.765625 -18.296875 8.640625 -18.296875 L 5.609375 -18.296875 L 5.609375 -2.953125 Z M 2.359375 0 L 2.359375 -21.25 L 8.640625 -21.25 C 9.703125 -21.25 10.660156 -21.09375 11.515625 -20.78125 C 12.378906 -20.46875 13.117188 -20.019531 13.734375 -19.4375 C 14.359375 -18.851562 14.835938 -18.148438 15.171875 -17.328125 C 15.503906 -16.515625 15.671875 -15.617188 15.671875 -14.640625 L 15.671875 -6.640625 C 15.671875 -5.640625 15.503906 -4.726562 15.171875 -3.90625 C 14.835938 -3.09375 14.359375 -2.394531 13.734375 -1.8125 C 13.117188 -1.226562 12.378906 -0.78125 11.515625 -0.46875 C 10.660156 -0.15625 9.703125 0 8.640625 0 Z M 2.359375 0 "/></g></g></g><g fill="#000000" fill-opacity="1"><g transform="translate(814.917307, 362.095821)"><g><path d="M 15.46875 -15.46875 C 15.46875 -13.925781 15.050781 -12.460938 14.21875 -11.078125 C 13.394531 -9.691406 12.078125 -8.234375 10.265625 -6.703125 L 6.96875 -3.921875 C 6.8125 -3.785156 6.644531 -3.660156 6.46875 -3.546875 C 6.289062 -3.441406 6.125 -3.34375 5.96875 -3.25 C 5.789062 -3.144531 5.613281 -3.054688 5.4375 -2.984375 L 5.4375 -2.859375 C 5.726562 -2.878906 6.019531 -2.898438 6.3125 -2.921875 C 6.59375 -2.921875 6.890625 -2.925781 7.203125 -2.9375 C 7.515625 -2.945312 7.8125 -2.953125 8.09375 -2.953125 L 15.703125 -2.953125 L 15.703125 0 L 1.859375 0 L 1.859375 -3.484375 L 8.140625 -8.703125 C 8.847656 -9.316406 9.457031 -9.898438 9.96875 -10.453125 C 10.488281 -11.003906 10.910156 -11.546875 11.234375 -12.078125 C 11.554688 -12.609375 11.789062 -13.140625 11.9375 -13.671875 C 12.082031 -14.203125 12.15625 -14.757812 12.15625 -15.34375 C 12.15625 -16.375 11.847656 -17.1875 11.234375 -17.78125 C 10.628906 -18.382812 9.804688 -18.6875 8.765625 -18.6875 C 7.640625 -18.6875 6.734375 -18.390625 6.046875 -17.796875 C 5.359375 -17.203125 5.015625 -16.414062 5.015625 -15.4375 L 1.71875 -15.4375 C 1.726562 -16.363281 1.90625 -17.195312 2.25 -17.9375 C 2.601562 -18.6875 3.085938 -19.328125 3.703125 -19.859375 C 4.328125 -20.390625 5.070312 -20.800781 5.9375 -21.09375 C 6.800781 -21.394531 7.753906 -21.546875 8.796875 -21.546875 C 9.796875 -21.546875 10.703125 -21.398438 11.515625 -21.109375 C 12.335938 -20.828125 13.039062 -20.421875 13.625 -19.890625 C 14.21875 -19.359375 14.671875 -18.71875 14.984375 -17.96875 C 15.304688 -17.226562 15.46875 -16.394531 15.46875 -15.46875 Z M 15.46875 -15.46875 "/></g></g></g><g fill="#000000" fill-opacity="1"><g transform="translate(779.502736, 422.054328)"><g><path d="M 2.59375 0 L 2.59375 -2.828125 L 7.203125 -2.828125 L 7.203125 -18.421875 L 2.59375 -18.421875 L 2.59375 -21.25 L 15.109375 -21.25 L 15.109375 -18.421875 L 10.5 -18.421875 L 10.5 -2.828125 L 15.109375 -2.828125 L 15.109375 0 Z M 2.59375 0 "/></g></g></g><g fill="#000000" fill-opacity="1"><g transform="translate(797.210022, 422.054328)"><g><path d="M 8.640625 -2.953125 C 9.765625 -2.953125 10.671875 -3.285156 11.359375 -3.953125 C 12.046875 -4.617188 12.390625 -5.515625 12.390625 -6.640625 L 12.390625 -14.640625 C 12.390625 -15.742188 12.046875 -16.628906 11.359375 -17.296875 C 10.671875 -17.960938 9.765625 -18.296875 8.640625 -18.296875 L 5.609375 -18.296875 L 5.609375 -2.953125 Z M 2.359375 0 L 2.359375 -21.25 L 8.640625 -21.25 C 9.703125 -21.25 10.660156 -21.09375 11.515625 -20.78125 C 12.378906 -20.46875 13.117188 -20.019531 13.734375 -19.4375 C 14.359375 -18.851562 14.835938 -18.148438 15.171875 -17.328125 C 15.503906 -16.515625 15.671875 -15.617188 15.671875 -14.640625 L 15.671875 -6.640625 C 15.671875 -5.640625 15.503906 -4.726562 15.171875 -3.90625 C 14.835938 -3.09375 14.359375 -2.394531 13.734375 -1.8125 C 13.117188 -1.226562 12.378906 -0.78125 11.515625 -0.46875 C 10.660156 -0.15625 9.703125 0 8.640625 0 Z M 2.359375 0 "/></g></g></g><g fill="#000000" fill-opacity="1"><g transform="translate(814.917307, 422.054328)"><g><path d="M 9 -12.84375 C 10.039062 -12.820312 10.972656 -12.644531 11.796875 -12.3125 C 12.628906 -11.988281 13.335938 -11.539062 13.921875 -10.96875 C 14.515625 -10.40625 14.96875 -9.726562 15.28125 -8.9375 C 15.601562 -8.15625 15.765625 -7.269531 15.765625 -6.28125 C 15.765625 -5.28125 15.597656 -4.375 15.265625 -3.5625 C 14.929688 -2.757812 14.457031 -2.066406 13.84375 -1.484375 C 13.226562 -0.910156 12.488281 -0.46875 11.625 -0.15625 C 10.757812 0.144531 9.796875 0.296875 8.734375 0.296875 C 7.773438 0.296875 6.878906 0.164062 6.046875 -0.09375 C 5.222656 -0.363281 4.507812 -0.75 3.90625 -1.25 C 3.3125 -1.75 2.828125 -2.351562 2.453125 -3.0625 C 2.078125 -3.769531 1.847656 -4.566406 1.765625 -5.453125 L 5.015625 -5.453125 C 5.171875 -4.566406 5.582031 -3.851562 6.25 -3.3125 C 6.925781 -2.78125 7.753906 -2.515625 8.734375 -2.515625 C 9.878906 -2.515625 10.796875 -2.859375 11.484375 -3.546875 C 12.171875 -4.234375 12.515625 -5.144531 12.515625 -6.28125 C 12.515625 -7.425781 12.160156 -8.347656 11.453125 -9.046875 C 10.742188 -9.742188 9.800781 -10.09375 8.625 -10.09375 L 6.078125 -10.09375 L 6.078125 -13.28125 L 9.828125 -16.96875 C 10.046875 -17.1875 10.269531 -17.382812 10.5 -17.5625 C 10.738281 -17.738281 10.96875 -17.90625 11.1875 -18.0625 C 11.425781 -18.21875 11.660156 -18.375 11.890625 -18.53125 L 11.890625 -18.65625 C 11.660156 -18.613281 11.40625 -18.582031 11.125 -18.5625 C 10.882812 -18.519531 10.613281 -18.488281 10.3125 -18.46875 C 10.007812 -18.457031 9.691406 -18.453125 9.359375 -18.453125 L 2.5625 -18.453125 L 2.5625 -21.25 L 14.8125 -21.25 L 14.8125 -17.96875 L 10.21875 -13.75 C 10.050781 -13.632812 9.898438 -13.519531 9.765625 -13.40625 C 9.628906 -13.300781 9.503906 -13.203125 9.390625 -13.109375 C 9.242188 -13.003906 9.113281 -12.914062 9 -12.84375 Z M 9 -12.84375 "/></g></g></g></svg>